<svg width="86" height="81" viewBox="0 0 86 81" fill="none" xmlns="http://www.w3.org/2000/svg">
<g clip-path="url(#clip0_195_5246)">
<path d="M22.0664 44.348C16.0779 44.348 11.243 38.0563 9.56497 31.8385C9.40765 31.279 9.74326 30.6984 10.2991 30.5401C10.855 30.3817 11.4318 30.7195 11.5891 31.279C13.0259 36.5889 17.1791 42.2261 22.0664 42.2261C26.9538 42.2261 31.0755 36.6206 32.5228 31.3424C32.6801 30.7829 33.2569 30.4556 33.8128 30.6034C34.3686 30.7618 34.7042 31.3424 34.5469 31.9019C32.8479 38.0774 28.0235 44.3374 22.0664 44.3374V44.348Z" fill="#A032C7"/>
<path d="M10.8339 72.3857C10.2571 72.3857 9.78516 71.9106 9.78516 71.33V61.5019C9.78516 60.9213 10.2571 60.4463 10.8339 60.4463C11.4108 60.4463 11.8827 60.9213 11.8827 61.5019V71.33C11.8827 71.9106 11.4108 72.3857 10.8339 72.3857Z" fill="#A032C7"/>
<path d="M33.2988 72.3857C32.722 72.3857 32.25 71.9106 32.25 71.33V61.5019C32.25 60.9213 32.722 60.4463 33.2988 60.4463C33.8756 60.4463 34.3476 60.9213 34.3476 61.5019V71.33C34.3476 71.9106 33.8756 72.3857 33.2988 72.3857Z" fill="#A032C7"/>
<path d="M15.8366 49.8583C15.5325 49.8583 15.2388 49.7316 15.0291 49.4782C14.662 49.0348 14.7249 48.3592 15.1654 47.9898C15.8681 47.4091 16.34 44.3478 16.34 41.8564C16.34 41.2758 16.812 40.8008 17.3888 40.8008C17.9656 40.8008 18.4376 41.2758 18.4376 41.8564C18.4376 43.3027 18.3013 48.127 16.5078 49.6155C16.3086 49.7738 16.0778 49.8583 15.8366 49.8583Z" fill="#A032C7"/>
<path d="M28.296 49.8583C28.0653 49.8583 27.8241 49.7738 27.6248 49.6155C25.8314 48.1164 25.6951 43.2921 25.6951 41.8564C25.6951 41.2758 26.167 40.8008 26.7438 40.8008C27.3207 40.8008 27.7926 41.2758 27.7926 41.8564C27.7926 44.3478 28.2646 47.4091 28.9673 47.9898C29.4078 48.3592 29.4707 49.0243 29.1036 49.4782C28.8938 49.7316 28.6002 49.8583 28.296 49.8583Z" fill="#A032C7"/>
<path d="M33.7079 32.7146C32.9318 32.7146 32.2816 32.2185 32.0718 31.4584C31.4006 28.9776 30.4986 24.1322 30.4567 23.9211C30.4567 23.8789 30.4462 23.8261 30.4357 23.7733C30.4357 23.7733 30.3938 23.7522 30.2994 23.7522C27.1006 23.7205 23.7235 22.232 22.1923 21.4614L23.5452 25.114C23.692 25.5257 23.5767 25.9902 23.2516 26.2752C22.9264 26.5602 22.4545 26.6235 22.0664 26.4124L14.6411 22.4643C14.4313 22.3587 14.1691 22.3587 13.9699 22.4643L12.0716 31.3212C11.8618 32.134 11.1486 32.683 10.383 32.6408C9.59644 32.6302 8.92522 32.0707 8.75741 31.3001C6.82766 22.3904 7.20522 16.6371 9.96351 13.1957C12.1659 10.4404 15.7738 9.15255 21.584 9.04698C21.7308 9.02587 21.8881 9.04698 22.0245 9.04698C22.1713 9.04698 22.3286 9.03642 22.465 9.04698C28.3067 9.15255 31.925 10.451 34.1379 13.2274C36.9067 16.6899 37.2842 22.4537 35.3545 31.374C35.1867 32.1552 34.5364 32.6935 33.7394 32.7146C33.7184 32.7146 33.7079 32.7146 33.6869 32.7146H33.7079ZM32.5228 23.5938C32.6067 24.0372 33.1416 26.8875 33.6659 29.1888C35.0608 21.9365 34.6833 17.2599 32.5123 14.5469C30.6664 12.2456 27.4257 11.19 22.0245 11.1477C16.6442 11.19 13.414 12.235 11.5891 14.5152C9.44961 17.1966 9.07205 21.8098 10.425 28.9776L11.9877 21.6726C12.0296 21.4931 12.103 21.3347 12.2289 21.1975C13.0574 20.2474 14.4838 19.9941 15.6164 20.5958L20.6086 23.256L19.9059 21.3559C19.9059 21.3559 19.8745 21.2608 19.864 21.2186C19.7381 20.638 19.9164 20.0363 20.3359 19.6035C20.7869 19.139 21.4372 18.949 22.0769 19.0757C22.1818 19.0968 22.2867 19.139 22.3916 19.1918C22.4335 19.2129 26.6496 21.6092 30.3308 21.6514C31.5055 21.662 32.4389 22.496 32.5333 23.6044L32.5228 23.5938Z" fill="#A032C7"/>
<path d="M39.6229 72.3859H4.49927C2.01366 72.3859 0 70.3485 0 67.8571V65.8936C0 55.506 4.66707 50.0905 15.6163 47.7681C15.889 47.7048 16.1722 47.7681 16.4029 47.9159L22.0663 51.5896L27.7298 47.9159C27.9605 47.7681 28.2437 47.7153 28.5163 47.7681C39.4656 50.0905 44.1327 55.506 44.1327 65.8936V67.8571C44.1327 70.359 42.1085 72.3859 39.6334 72.3859H39.6229ZM12.2393 50.8717C5.08659 53.3314 2.09756 57.8918 2.09756 65.8936V67.8571C2.09756 69.1872 3.17781 70.2746 4.49927 70.2746H39.6229C40.9444 70.2746 42.0246 69.1872 42.0246 67.8571V65.8936C42.0246 57.8812 39.0356 53.3208 31.8829 50.8717L27.7402 57.3745C27.5724 57.6384 27.2893 57.8179 26.9746 57.8496C26.6495 57.8812 26.3454 57.7757 26.1251 57.5434L22.0663 53.4581L18.0076 57.5434C17.7873 57.7651 17.4622 57.8812 17.1581 57.8496C16.8434 57.8179 16.5602 57.6384 16.3924 57.3745L12.2498 50.8717H12.2393ZM14.3368 50.2383L17.4412 55.126L19.8639 52.6874L15.6268 49.9322C15.1863 50.0272 14.7563 50.1328 14.3368 50.2489V50.2383ZM24.2583 52.6769L26.681 55.1154L29.7854 50.2278C29.3659 50.1222 28.9359 50.0166 28.4954 49.9111L24.2583 52.6663V52.6769Z" fill="#A032C7"/>
<path d="M80.4414 24.1744H67.5414C64.479 24.1744 61.9829 21.6619 61.9829 18.5794V5.59494C61.9829 2.51245 64.479 0 67.5414 0H80.4414C83.5039 0 86 2.51245 86 5.59494V18.5794C86 21.6619 83.5039 24.1744 80.4414 24.1744ZM67.5414 2.1113C65.6327 2.1113 64.0805 3.67366 64.0805 5.59494V18.5794C64.0805 20.5007 65.6327 22.0631 67.5414 22.0631H80.4414C82.3502 22.0631 83.9024 20.5007 83.9024 18.5794V5.59494C83.9024 3.67366 82.3502 2.1113 80.4414 2.1113H67.5414Z" fill="#FBA226"/>
<path d="M80.4414 81.0001H67.5414C64.479 81.0001 61.9829 78.4876 61.9829 75.4051V62.4206C61.9829 59.3381 64.479 56.8257 67.5414 56.8257H80.4414C83.5039 56.8257 86 59.3381 86 62.4206V75.4051C86 78.4876 83.5039 81.0001 80.4414 81.0001ZM67.5414 58.937C65.6327 58.937 64.0805 60.4993 64.0805 62.4206V75.4051C64.0805 77.3264 65.6327 78.8888 67.5414 78.8888H80.4414C82.3502 78.8888 83.9024 77.3264 83.9024 75.4051V62.4206C83.9024 60.4993 82.3502 58.937 80.4414 58.937H67.5414Z" fill="#FBA226"/>
<path d="M80.4414 52.5821H67.5414C64.479 52.5821 61.9829 50.0696 61.9829 46.9871V34.0027C61.9829 30.9202 64.479 28.4077 67.5414 28.4077H80.4414C83.5039 28.4077 86 30.9202 86 34.0027V46.9871C86 50.0696 83.5039 52.5821 80.4414 52.5821ZM67.5414 30.519C65.6327 30.519 64.0805 32.0814 64.0805 34.0027V46.9871C64.0805 48.9084 65.6327 50.4708 67.5414 50.4708H80.4414C82.3502 50.4708 83.9024 48.9084 83.9024 46.9871V34.0027C83.9024 32.0814 82.3502 30.519 80.4414 30.519H67.5414Z" fill="#FBA226"/>
<path d="M39.1929 35.3009C38.8887 35.3009 38.5741 35.1637 38.3643 34.8998C38.0078 34.4459 38.0812 33.7808 38.5321 33.4219L40.8709 31.5534C41.3219 31.1945 41.9826 31.2684 42.3497 31.7223C42.7063 32.1762 42.6329 32.8413 42.1819 33.2002L39.8431 35.0687C39.6543 35.227 39.4236 35.3009 39.1929 35.3009ZM46.2302 29.6954C45.926 29.6954 45.6114 29.5582 45.4017 29.2943C45.0451 28.8404 45.1185 28.1753 45.5695 27.8164L47.9082 25.9479C48.3592 25.589 49.0199 25.6629 49.387 26.1168C49.7436 26.5707 49.6702 27.2358 49.2192 27.5947L46.8804 29.4632C46.6917 29.6215 46.4609 29.6954 46.2302 29.6954ZM53.257 24.0899C52.9529 24.0899 52.6382 23.9527 52.4285 23.6888C52.0719 23.2349 52.1453 22.5698 52.5963 22.2109L54.9351 20.3424C55.386 19.9835 56.0468 20.0574 56.4138 20.5113C56.7704 20.9652 56.697 21.6303 56.246 21.9892L53.9073 23.8577C53.7185 24.016 53.4877 24.0899 53.257 24.0899Z" fill="#A032C7"/>
<path d="M55.061 41.5503H52.072C51.4952 41.5503 51.0232 41.0752 51.0232 40.4946C51.0232 39.914 51.4952 39.439 52.072 39.439H55.061C55.6379 39.439 56.1098 39.914 56.1098 40.4946C56.1098 41.0752 55.6379 41.5503 55.061 41.5503ZM46.094 41.5503H43.1049C42.5281 41.5503 42.0562 41.0752 42.0562 40.4946C42.0562 39.914 42.5281 39.439 43.1049 39.439H46.094C46.6708 39.439 47.1427 39.914 47.1427 40.4946C47.1427 41.0752 46.6708 41.5503 46.094 41.5503Z" fill="#A032C7"/>
<path d="M55.9943 60.1933C55.774 60.1933 55.5538 60.13 55.365 59.9822L52.9633 58.1876C52.5019 57.8392 52.397 57.1742 52.7431 56.7097C53.0892 56.2452 53.7499 56.1397 54.2114 56.488L56.6131 58.2826C57.0745 58.631 57.1794 59.296 56.8333 59.7605C56.6236 60.035 56.3089 60.1828 55.9943 60.1828V60.1933ZM48.7892 54.8095C48.5689 54.8095 48.3487 54.7462 48.1599 54.5984L45.7582 52.8038C45.2967 52.4554 45.1919 51.7904 45.5379 51.3259C45.884 50.8614 46.5448 50.7558 47.0062 51.1042L49.408 52.8988C49.8694 53.2472 49.9743 53.9122 49.6282 54.3767C49.4184 54.6512 49.1038 54.799 48.7892 54.799V54.8095ZM41.5945 49.4257C41.3743 49.4257 41.154 49.3624 40.9653 49.2146L38.5636 47.42C38.1021 47.0716 37.9972 46.4066 38.3433 45.9421C38.6894 45.4776 39.3501 45.372 39.8116 45.7204L42.2133 47.515C42.6748 47.8634 42.7797 48.5284 42.4336 48.9929C42.2238 49.2674 41.9092 49.4152 41.5945 49.4152V49.4257Z" fill="#A032C7"/>
<path d="M78.2285 18.9594C77.7985 18.9594 77.3999 18.6955 77.2426 18.2732L73.9914 9.44797L70.7402 18.2732C70.5409 18.8221 69.9326 19.0966 69.3873 18.896C68.8419 18.6955 68.5692 18.0832 68.7685 17.5342L73.0056 6.03822C73.1629 5.62652 73.5509 5.35205 73.9914 5.35205C74.4319 5.35205 74.8199 5.62652 74.9773 6.03822L79.2143 17.5342C79.4136 18.0832 79.1409 18.6849 78.5956 18.896C78.4802 18.9383 78.3543 18.9594 78.2285 18.9594Z" fill="#A032C7"/>
<path d="M76.9596 15.8349H70.8872C70.3103 15.8349 69.8384 15.3599 69.8384 14.7793C69.8384 14.1987 70.3103 13.7236 70.8872 13.7236H76.9596C77.5364 13.7236 78.0084 14.1987 78.0084 14.7793C78.0084 15.3599 77.5364 15.8349 76.9596 15.8349Z" fill="#A032C7"/>
<path d="M74.2117 75.7111C70.908 75.7111 68.2231 72.6603 68.2231 68.9022C68.2231 65.1441 70.908 62.0933 74.2117 62.0933C75.7744 62.0933 77.2531 62.7689 78.3753 64.004C78.7634 64.4368 78.7424 65.1019 78.3124 65.4925C77.8824 65.883 77.2217 65.8619 76.8336 65.4291C76.1205 64.6374 75.187 64.2046 74.2222 64.2046C72.0827 64.2046 70.3312 66.3053 70.3312 68.9022C70.3312 71.4991 72.0722 73.5998 74.2222 73.5998C75.229 73.5998 76.1939 73.1354 76.9175 72.2803C77.2951 71.8369 77.9558 71.7947 78.3963 72.1747C78.8368 72.5548 78.8787 73.2198 78.5012 73.6632C77.3685 74.9827 75.8478 75.7111 74.2222 75.7111H74.2117Z" fill="#A032C7"/>
<path d="M74.5788 47.2616H71.3066C70.7298 47.2616 70.2578 46.7866 70.2578 46.206V34.7099C70.2578 34.1293 70.7298 33.6543 71.3066 33.6543H74.0859C76.0995 33.6543 77.7461 35.3117 77.7461 37.3385C77.7461 38.2147 77.442 39.017 76.9281 39.6504C78.0083 40.4105 78.711 41.6667 78.711 43.0918C78.711 45.3931 76.8546 47.2616 74.5683 47.2616H74.5788ZM72.3554 45.1503H74.5788C75.7115 45.1503 76.6239 44.2214 76.6239 43.0918C76.6239 41.9623 75.701 41.0227 74.5788 41.0227H72.3554V45.1503ZM72.3554 38.9009H74.0859C74.9459 38.9009 75.6485 38.1936 75.6485 37.328C75.6485 36.4623 74.9459 35.755 74.0859 35.755H72.3554V38.9009Z" fill="#A032C7"/>
</g>
<defs>
<clipPath id="clip0_195_5246">
<rect width="86" height="81" fill="white"/>
</clipPath>
</defs>
</svg>
