<svg width="61" height="82" viewBox="0 0 61 82" fill="none" xmlns="http://www.w3.org/2000/svg">
<g clip-path="url(#clip0_195_5316)">
<path d="M49.67 81.9999H19.35C13.64 81.9999 8.98999 77.3599 8.98999 71.6499V58.4199C8.98999 57.8699 9.43999 57.4199 9.98999 57.4199C10.54 57.4199 10.99 57.8699 10.99 58.4199V71.6499C10.99 76.2599 14.74 79.9999 19.35 79.9999H49.67C54.28 79.9999 58.02 76.2499 58.02 71.6499V51.4199C58.02 50.8699 58.47 50.4199 59.02 50.4199C59.57 50.4199 60.02 50.8699 60.02 51.4199V71.6499C60.02 77.3599 55.38 81.9999 49.67 81.9999Z" fill="#A032C7"/>
<path d="M10 27.03C9.45 27.03 9 26.58 9 26.03V10.35C9 4.64 13.64 0 19.35 0H49.67C55.38 0 60.02 4.64 60.02 10.35V53.03C60.02 53.58 59.57 54.03 59.02 54.03C58.47 54.03 58.02 53.58 58.02 53.03V10.35C58.02 5.74 54.27 2 49.67 2H19.35C14.74 2 10.99 5.75 10.99 10.35V26.03C10.99 26.58 10.54 27.03 9.99 27.03H10Z" fill="#A032C7"/>
<path d="M59.03 16.1899H10C9.45 16.1899 9 15.7399 9 15.1899C9 14.6399 9.45 14.1899 10 14.1899H59.03C59.58 14.1899 60.03 14.6399 60.03 15.1899C60.03 15.7399 59.58 16.1899 59.03 16.1899Z" fill="#A032C7"/>
<path d="M37.74 9.1001H31.29C30.74 9.1001 30.29 8.6501 30.29 8.1001C30.29 7.5501 30.74 7.1001 31.29 7.1001H37.74C38.29 7.1001 38.74 7.5501 38.74 8.1001C38.74 8.6501 38.29 9.1001 37.74 9.1001Z" fill="#A032C7"/>
<path d="M59.03 67.8101H10C9.45 67.8101 9 67.3601 9 66.8101C9 66.2601 9.45 65.8101 10 65.8101H59.03C59.58 65.8101 60.03 66.2601 60.03 66.8101C60.03 67.3601 59.58 67.8101 59.03 67.8101Z" fill="#A032C7"/>
<path d="M23.38 60.9398C22.99 60.9398 22.6 60.7898 22.31 60.4998L16.23 54.4198H5.21C2.34 54.4198 0 52.0798 0 49.2098V35.2398C0 32.3698 2.34 30.0298 5.21 30.0298H27.08C29.95 30.0298 32.29 32.3698 32.29 35.2398V49.2098C32.29 52.0798 29.95 54.4198 27.08 54.4198H24.89V59.4298C24.89 60.0398 24.52 60.5898 23.96 60.8298C23.77 60.9098 23.57 60.9498 23.38 60.9498V60.9398ZM5.21 32.0298C3.44 32.0298 2 33.4698 2 35.2398V49.2098C2 50.9798 3.44 52.4198 5.21 52.4198H16.44C16.84 52.4198 17.22 52.5798 17.51 52.8598L22.9 58.2498V53.9298C22.9 53.0998 23.58 52.4198 24.41 52.4198H27.09C28.86 52.4198 30.3 50.9798 30.3 49.2098V35.2398C30.3 33.4698 28.86 32.0298 27.09 32.0298H5.21Z" fill="#FBA226"/>
<path d="M14.3101 46.3C14.0501 46.3 13.8001 46.2 13.6001 46.01L10.5401 42.95C10.1501 42.56 10.1501 41.93 10.5401 41.54C10.9301 41.15 11.5601 41.15 11.9501 41.54L14.3001 43.89L19.7101 38.48C20.1001 38.09 20.7301 38.09 21.1201 38.48C21.5101 38.87 21.5101 39.5 21.1201 39.89L15.0001 46.01C14.8001 46.21 14.5501 46.3 14.2901 46.3H14.3101Z" fill="#FBA226"/>
<path d="M50.15 30.5897C49.89 30.5897 49.64 30.4897 49.44 30.2997L48.48 29.3397C48.09 28.9497 48.09 28.3197 48.48 27.9297C48.87 27.5397 49.5 27.5397 49.89 27.9297L50.85 28.8897C51.24 29.2797 51.24 29.9097 50.85 30.2997C50.65 30.4997 50.4 30.5897 50.14 30.5897H50.15Z" fill="#A032C7"/>
<path d="M44.9801 25.4198C44.7201 25.4198 44.4701 25.3198 44.2701 25.1298L43.3101 24.1698C42.9201 23.7798 42.9201 23.1498 43.3101 22.7598C43.7001 22.3698 44.3301 22.3698 44.7201 22.7598L45.6801 23.7198C46.0701 24.1098 46.0701 24.7398 45.6801 25.1298C45.4801 25.3298 45.2301 25.4198 44.9701 25.4198H44.9801Z" fill="#A032C7"/>
<path d="M44.0201 30.5897C43.7601 30.5897 43.5101 30.4897 43.3101 30.2997C42.9201 29.9097 42.9201 29.2797 43.3101 28.8897L44.2701 27.9297C44.6601 27.5397 45.2901 27.5397 45.6801 27.9297C46.0701 28.3197 46.0701 28.9497 45.6801 29.3397L44.7201 30.2997C44.5201 30.4997 44.2701 30.5897 44.0101 30.5897H44.0201Z" fill="#A032C7"/>
<path d="M49.19 25.4198C48.93 25.4198 48.68 25.3198 48.48 25.1298C48.09 24.7398 48.09 24.1098 48.48 23.7198L49.44 22.7598C49.83 22.3698 50.46 22.3698 50.85 22.7598C51.24 23.1498 51.24 23.7798 50.85 24.1698L49.89 25.1298C49.69 25.3298 49.44 25.4198 49.18 25.4198H49.19Z" fill="#A032C7"/>
</g>
<defs>
<clipPath id="clip0_195_5316">
<rect width="60.03" height="82" fill="white"/>
</clipPath>
</defs>
</svg>
