<svg width="88" height="76" viewBox="0 0 88 76" fill="none" xmlns="http://www.w3.org/2000/svg">
<g clip-path="url(#clip0_195_5300)">
<path d="M19.5425 76.0002C19.0059 76.0002 18.5444 75.5905 18.48 75.0407C17.879 69.7046 14.359 65.9531 10.6459 61.9752C8.40294 59.582 6.08489 57.1026 4.31416 54.1704C0.740501 48.2521 -0.686816 40.1454 0.311233 31.3488C2.2644 13.9065 5.09757 13.8311 6.16001 13.7987C7.16879 13.7664 8.09172 14.1545 8.78928 14.9091C11.0859 17.3993 10.8176 23.4578 10.1844 29.6348L10.1093 30.4217C10.0556 31.0146 9.52977 31.4458 8.93953 31.3919C8.34928 31.338 7.92001 30.8098 7.97367 30.2169L8.04879 29.4192C8.36001 26.4331 9.16489 18.4881 7.22245 16.3752C6.94343 16.0734 6.63221 15.9224 6.23514 15.9548C5.67709 16.1704 3.8205 19.4152 2.45757 31.5968C1.52392 39.919 2.83318 47.5406 6.16001 53.06C7.80196 55.7982 10.0449 58.1806 12.2127 60.4983C16.0117 64.5516 19.9395 68.7451 20.6264 74.7928C20.6907 75.3857 20.2722 75.9139 19.682 75.9894C19.639 75.9894 19.5961 75.9894 19.5639 75.9894L19.5425 76.0002Z" fill="#A032C7"/>
<path d="M38.1082 75.7519C37.518 75.7519 37.0351 75.2668 37.0458 74.6631C37.0565 72.2807 37.5717 69.8659 38.0653 67.5374C39.2565 61.9317 40.2868 57.0915 35.1141 52.8225C33.6868 51.6475 32.0019 50.7312 30.2204 49.7502C28.6643 48.8986 27.0546 48.0146 25.6273 46.9473C23.556 45.395 21.9356 43.5193 20.358 41.7082C19.639 40.8781 18.8878 40.0157 18.1258 39.218L17.7287 38.7868C16.4731 37.4393 14.1229 34.9275 12.277 35.4449C11.8799 35.5527 11.6117 35.7576 11.4292 36.081C11.1717 36.5553 10.8604 37.7519 11.676 40.5116C12.5775 43.5732 14.8848 46.182 17.3317 48.9525C19.2634 51.1408 21.2595 53.4046 22.5687 55.9703C22.837 56.4986 22.6331 57.1454 22.1073 57.4256C21.5814 57.6951 20.9375 57.4903 20.6585 56.9621C19.478 54.6444 17.5678 52.4776 15.7219 50.397C13.2321 47.5726 10.6565 44.662 9.61556 41.1369C8.81068 38.4203 8.78922 36.4259 9.55117 35.0461C10.0126 34.216 10.7531 33.6447 11.7082 33.3751C14.8097 32.5127 17.7287 35.639 19.2956 37.3207L19.6712 37.7303C20.476 38.5712 21.238 39.4444 21.9785 40.296C23.4702 42.0208 25.0263 43.8103 26.9043 45.2225C28.2029 46.2035 29.6838 47.0012 31.2399 47.8637C33.0321 48.8447 34.8887 49.858 36.4663 51.1624C42.6478 56.2614 41.3707 62.2336 40.1473 68.001C39.6751 70.2217 39.1921 72.5178 39.1707 74.6847C39.1707 75.2776 38.6878 75.7519 38.0975 75.7519H38.1082Z" fill="#A032C7"/>
<path d="M68.4575 76.0001C68.4575 76.0001 68.3717 76.0001 68.3395 76.0001C67.7492 75.9355 67.3307 75.3965 67.3951 74.8035C68.0819 68.7559 72.0097 64.5624 75.798 60.5091C77.9658 58.1913 80.2087 55.7982 81.8507 53.0708C85.1775 47.5513 86.4975 39.919 85.5531 31.6075C84.1795 19.426 82.3336 16.1811 81.7327 15.9655C81.3678 15.9655 81.0565 16.0949 80.7775 16.386C78.8244 18.4989 79.64 26.4331 79.9512 29.4192L80.037 30.2169C80.0907 30.8098 79.6614 31.338 79.0712 31.3919C78.4809 31.4458 77.9551 31.0146 77.9014 30.4217L77.8263 29.6348C77.1931 23.4577 76.9248 17.3993 79.2214 14.9091C79.919 14.1545 80.8419 13.7772 81.8507 13.7987C82.9131 13.8311 85.7356 13.9065 87.7102 31.3488C88.6975 40.1346 87.2809 48.2413 83.7073 54.1704C81.9473 57.1026 79.6185 59.5712 77.3756 61.9752C73.6517 65.9423 70.1424 69.6938 69.5414 75.0299C69.477 75.5797 69.0156 75.9894 68.479 75.9894L68.4575 76.0001Z" fill="#A032C7"/>
<path d="M49.881 75.7523C49.2907 75.7523 48.8078 75.278 48.8078 74.6851C48.7971 72.5183 48.3034 70.2221 47.8312 68.0014C46.6078 62.234 45.3415 56.2726 51.5122 51.1628C53.0898 49.8584 54.9464 48.8451 56.7385 47.8641C58.2946 47.0124 59.7756 46.2039 61.0742 45.2229C62.9629 43.8 64.5083 42.0212 66.0107 40.2856C66.7512 39.434 67.5132 38.55 68.3181 37.72L68.7044 37.3103C70.2712 35.6286 73.1795 32.5131 76.2917 33.3756C77.2468 33.6451 77.9873 34.2164 78.4381 35.0465C79.2 36.4263 79.1786 38.4207 78.3737 41.1373C77.3327 44.6516 74.7571 47.573 72.2673 50.3974C70.4215 52.4888 68.522 54.6448 67.3307 56.9625C67.0625 57.4907 66.4186 57.7063 65.882 57.4261C65.3561 57.1566 65.1415 56.5097 65.4205 55.9707C66.7298 53.4051 68.7259 51.1412 70.6576 48.9529C73.1044 46.1824 75.401 43.5736 76.3132 40.512C77.1288 37.7523 76.8176 36.5449 76.56 36.0814C76.3776 35.758 76.1093 35.5532 75.7122 35.4453C73.8664 34.9279 71.5161 37.4397 70.2605 38.7764L69.8527 39.2076C69.0907 40.0053 68.3395 40.8678 67.6205 41.6978C66.0537 43.5089 64.4225 45.3846 62.3512 46.9478C60.9239 48.015 59.3142 48.899 57.7473 49.7506C55.9659 50.7208 54.281 51.6479 52.8537 52.8229C47.681 57.0919 48.7112 61.9322 49.9025 67.5378C50.3961 69.8663 50.9112 72.2703 50.922 74.6635C50.922 75.2564 50.4498 75.7415 49.8595 75.7523H49.881Z" fill="#A032C7"/>
<path d="M18.0829 32.2757C17.5571 32.2757 17.0956 31.8877 17.0205 31.3487C16.8381 30.0658 16.7522 28.7614 16.7522 27.457C16.7522 12.3217 29.0185 0 44.0966 0C59.1746 0 71.441 12.3217 71.441 27.4678C71.441 28.7183 71.3551 29.9688 71.1941 31.1869C71.119 31.7799 70.5824 32.1787 69.9815 32.114C69.3912 32.0278 68.9834 31.4888 69.0585 30.8959C69.2088 29.7747 69.2839 28.6213 69.2839 27.4678C69.2839 13.5075 57.9834 2.15603 44.0859 2.15603C30.1883 2.15603 18.8878 13.5075 18.8878 27.4678C18.8878 28.6644 18.9737 29.8718 19.1346 31.0576C19.2205 31.6505 18.8127 32.1895 18.2224 32.2757C18.1688 32.2757 18.1151 32.2757 18.0722 32.2757H18.0829Z" fill="#A032C7"/>
<path d="M44.0966 48.5106C43.5064 48.5106 43.0234 48.0255 43.0234 47.4326V47.0014C43.0234 46.4084 43.5064 45.9233 44.0966 45.9233C44.6869 45.9233 45.1698 46.4084 45.1698 47.0014V47.4326C45.1698 48.0255 44.6869 48.5106 44.0966 48.5106Z" fill="#FBA226"/>
<path d="M24.6508 28.5457H24.2215C23.6312 28.5457 23.1483 28.0606 23.1483 27.4677C23.1483 26.8748 23.6312 26.3896 24.2215 26.3896H24.6508C25.241 26.3896 25.7239 26.8748 25.7239 27.4677C25.7239 28.0606 25.241 28.5457 24.6508 28.5457Z" fill="#FBA226"/>
<path d="M63.9717 28.5457H63.5424C62.9522 28.5457 62.4692 28.0606 62.4692 27.4677C62.4692 26.8748 62.9522 26.3896 63.5424 26.3896H63.9717C64.5619 26.3896 65.0448 26.8748 65.0448 27.4677C65.0448 28.0606 64.5619 28.5457 63.9717 28.5457Z" fill="#FBA226"/>
<path d="M44.7513 24.5677C44.5581 24.7618 44.2898 24.8804 43.9893 24.8804C43.3991 24.8804 42.9161 24.3953 42.9161 23.8023V12.9252C42.9161 12.3323 43.3991 11.8472 43.9893 11.8472C44.5796 11.8472 45.0625 12.3323 45.0625 12.9252V23.8023C45.0625 24.1042 44.9444 24.3737 44.7513 24.5677Z" fill="#A032C7"/>
<path d="M46.2966 25.7645C46.2966 26.0448 46.4039 26.3143 46.6079 26.5299C47.0264 26.9503 47.7025 26.9503 48.121 26.5299L54.2596 20.3636C54.6781 19.9432 54.6781 19.2641 54.2596 18.8436C53.841 18.4232 53.1649 18.4232 52.7464 18.8436L46.6079 25.0099C46.3932 25.2255 46.2966 25.495 46.2966 25.7753V25.7645Z" fill="#A032C7"/>
<path d="M30.3492 14.7364C30.0702 14.7364 29.8019 14.6286 29.5873 14.4238L29.2868 14.1219C28.8683 13.7015 28.8683 13.0224 29.2868 12.6019C29.7053 12.1815 30.3814 12.1815 30.8 12.6019L31.1005 12.9038C31.519 13.3242 31.519 14.0034 31.1005 14.4238C30.8858 14.6394 30.6175 14.7364 30.3385 14.7364H30.3492Z" fill="#FBA226"/>
<path d="M58.1444 42.6568C57.8654 42.6568 57.5971 42.549 57.3825 42.3442L57.082 42.0424C56.6634 41.6219 56.6634 40.9428 57.082 40.5224C57.5005 40.1019 58.1766 40.1019 58.5951 40.5224L58.8956 40.8242C59.3142 41.2446 59.3142 41.9238 58.8956 42.3442C58.681 42.5598 58.4127 42.6568 58.1337 42.6568H58.1444Z" fill="#FBA226"/>
<path d="M30.0488 42.6568C29.7697 42.6568 29.5014 42.549 29.2868 42.3442C28.8683 41.9238 28.8683 41.2446 29.2868 40.8242L29.5873 40.5224C30.0058 40.1019 30.6819 40.1019 31.1005 40.5224C31.519 40.9428 31.519 41.6219 31.1005 42.0424L30.8 42.3442C30.5853 42.549 30.317 42.6568 30.038 42.6568H30.0488Z" fill="#FBA226"/>
<path d="M58.1444 14.4237C57.8654 14.4237 57.5971 14.3159 57.3825 14.111C53.8303 10.5428 49.1083 8.58083 44.0859 8.58083C43.4956 8.58083 43.0127 8.09573 43.0127 7.50282C43.0127 6.90991 43.4956 6.4248 44.0859 6.4248C49.6771 6.4248 54.9464 8.61317 58.8956 12.591C59.3142 13.0115 59.3142 13.6906 58.8956 14.111C58.681 14.3266 58.4127 14.4237 58.1337 14.4237H58.1444Z" fill="#FBA226"/>
<path d="M44.0966 31.4027C41.9396 31.4027 40.1796 29.6348 40.1796 27.468C40.1796 25.3011 41.9396 23.5332 44.0966 23.5332C46.2537 23.5332 48.0137 25.3011 48.0137 27.468C48.0137 29.6348 46.2537 31.4027 44.0966 31.4027ZM44.0966 25.6892C43.1201 25.6892 42.3259 26.487 42.3259 27.468C42.3259 28.4489 43.1201 29.2467 44.0966 29.2467C45.0732 29.2467 45.8674 28.4489 45.8674 27.468C45.8674 26.487 45.0732 25.6892 44.0966 25.6892Z" fill="#A032C7"/>
</g>
<defs>
<clipPath id="clip0_195_5300">
<rect width="88" height="76" fill="white"/>
</clipPath>
</defs>
</svg>
