<svg width="76" height="92" viewBox="0 0 76 92" fill="none" xmlns="http://www.w3.org/2000/svg">
<g clip-path="url(#clip0_195_5265)">
<path d="M38 46.6845C36.2564 46.6845 34.5241 46.1684 33.0376 45.1362L31.2717 43.9021C30.7688 43.543 30.6347 42.8474 30.9923 42.3426C31.35 41.8377 32.0429 41.7031 32.5459 42.0621L34.3117 43.2962C36.5247 44.8333 39.4864 44.8333 41.6994 43.2962L43.4653 42.0621C43.9794 41.7031 44.6723 41.8377 45.0188 42.3426C45.3653 42.8474 45.2423 43.5543 44.7394 43.9021L42.9735 45.1362C41.487 46.1684 39.7435 46.6845 38.0112 46.6845H38Z" fill="#FBA226"/>
<path d="M59.917 54.5494C59.4588 54.5494 59.0229 54.2576 58.8664 53.7976C58.7323 53.405 58.5758 53.0123 58.4082 52.642C58.0058 51.7333 57.5029 50.8806 56.9329 50.1064C56.5641 49.6128 56.6647 48.9059 57.1564 48.5357C57.6482 48.1654 58.3523 48.2664 58.7211 48.7601C59.4029 49.6689 59.9841 50.6674 60.4535 51.7333C60.6435 52.1596 60.8223 52.6084 60.9788 53.0572C61.18 53.6406 60.8782 54.2801 60.2858 54.482C60.1629 54.5269 60.04 54.5494 59.917 54.5494Z" fill="#FBA226"/>
<path d="M16.083 54.5494C15.9601 54.5494 15.8371 54.527 15.7142 54.4821C15.133 54.2801 14.8201 53.6406 15.0212 53.0572C15.1777 52.5972 15.3565 52.1597 15.5465 51.7333C16.0048 50.6899 16.5748 49.7138 17.2342 48.8275C17.603 48.3338 18.3071 48.2328 18.7989 48.6031C19.2906 48.9733 19.3912 49.6801 19.0336 50.1738C18.4748 50.9255 17.983 51.767 17.5918 52.6533C17.4242 53.0236 17.2789 53.405 17.1336 53.8089C16.9771 54.2689 16.5412 54.5606 16.083 54.5606V54.5494Z" fill="#FBA226"/>
<path d="M38 91.9998C37.3853 91.9998 36.8823 91.4949 36.8823 90.8778C36.8823 89.2735 35.2059 87.972 33.1382 87.972H6.57175C5.95704 87.972 5.4541 87.4671 5.4541 86.85V73.3305C5.4541 72.7135 5.95704 72.2086 6.57175 72.2086C7.18645 72.2086 7.6894 72.7135 7.6894 73.3305V85.7281H33.1382C34.5576 85.7281 35.8541 86.1544 36.8823 86.8613V57.4437C36.8823 55.8393 35.2059 54.5378 33.1382 54.5378H7.6894V63.1657C7.6894 63.7827 7.18645 64.2876 6.57175 64.2876C5.95704 64.2876 5.4541 63.7827 5.4541 63.1657V53.4159C5.4541 52.7988 5.95704 52.2939 6.57175 52.2939H33.1382C36.4353 52.2939 39.1176 54.6052 39.1176 57.4437V90.8666C39.1176 91.4837 38.6147 91.9886 38 91.9886V91.9998Z" fill="#A032C7"/>
<path d="M38 91.9998C37.3853 91.9998 36.8823 91.4949 36.8823 90.8779V57.4549C36.8823 54.6164 39.5647 52.3052 42.8617 52.3052H69.4282C70.0429 52.3052 70.5459 52.8101 70.5459 53.4271V63.1769C70.5459 63.794 70.0429 64.2988 69.4282 64.2988C68.8135 64.2988 68.3106 63.794 68.3106 63.1769V54.5491H42.8617C40.7941 54.5491 39.1176 55.8505 39.1176 57.4549V86.8725C40.1459 86.1657 41.4423 85.7393 42.8617 85.7393H68.3106V73.3418C68.3106 72.7247 68.8135 72.2198 69.4282 72.2198C70.0429 72.2198 70.5459 72.7247 70.5459 73.3418V86.8613C70.5459 87.4783 70.0429 87.9832 69.4282 87.9832H42.8617C40.7941 87.9832 39.1176 89.2847 39.1176 90.8891C39.1176 91.5062 38.6147 92.011 38 92.011V91.9998Z" fill="#A032C7"/>
<path d="M32.0541 75.9562H12.5288C11.9141 75.9562 11.4111 75.4513 11.4111 74.8342V61.2025C11.4111 60.5854 11.9141 60.0806 12.5288 60.0806H32.0541C32.6688 60.0806 33.1717 60.5854 33.1717 61.2025V74.8342C33.1717 75.4513 32.6688 75.9562 32.0541 75.9562ZM13.6464 73.7123H30.9364V62.3245H13.6464V73.7123Z" fill="#A032C7"/>
<path d="M26.5329 67.0252H18.0388C17.4241 67.0252 16.9211 66.5203 16.9211 65.9032C16.9211 65.2861 17.4241 64.7812 18.0388 64.7812H26.5329C27.1476 64.7812 27.6506 65.2861 27.6506 65.9032C27.6506 66.5203 27.1476 67.0252 26.5329 67.0252Z" fill="#FBA226"/>
<path d="M23.1353 71.2888H18.0388C17.4241 71.2888 16.9211 70.7839 16.9211 70.1669C16.9211 69.5498 17.4241 69.0449 18.0388 69.0449H23.1353C23.75 69.0449 24.2529 69.5498 24.2529 70.1669C24.2529 70.7839 23.75 71.2888 23.1353 71.2888Z" fill="#FBA226"/>
<path d="M71.5294 74.9912C68.4447 74.9912 65.9412 72.4781 65.9412 69.3815V67.1376C65.9412 64.041 68.4447 61.5278 71.5294 61.5278C74.3235 61.5278 76 63.6259 76 67.1376V69.3815C76 72.8932 74.3235 74.9912 71.5294 74.9912ZM71.5294 63.7717C69.6853 63.7717 68.1765 65.2864 68.1765 67.1376V69.3815C68.1765 71.2327 69.6853 72.7473 71.5294 72.7473C72.077 72.7473 73.7647 72.7473 73.7647 69.3815V67.1376C73.7647 63.7717 72.077 63.7717 71.5294 63.7717Z" fill="#A032C7"/>
<path d="M4.47059 74.9912C1.67647 74.9912 0 72.8932 0 69.3815V67.1376C0 63.6259 1.67647 61.5278 4.47059 61.5278C7.55529 61.5278 10.0588 64.041 10.0588 67.1376V69.3815C10.0588 72.4781 7.55529 74.9912 4.47059 74.9912ZM4.47059 63.7717C3.92294 63.7717 2.23529 63.7717 2.23529 67.1376V69.3815C2.23529 72.7473 3.92294 72.7473 4.47059 72.7473C6.31471 72.7473 7.82353 71.2327 7.82353 69.3815V67.1376C7.82353 65.2864 6.31471 63.7717 4.47059 63.7717Z" fill="#A032C7"/>
<path d="M19.3242 50.3754C15.3901 50.3754 12.2271 49.3993 12.0036 49.3208C11.5454 49.1749 11.2324 48.7486 11.2212 48.2661C11.2101 47.7837 11.523 47.3461 11.9812 47.1891C12.4395 47.032 23.2359 43.2735 20.5089 34.152C14.0377 12.5208 22.8001 4.28565 25.6389 2.27736C29.7854 -0.662156 34.893 -0.763132 38.6595 2.01931C39.1512 2.38955 39.263 3.08516 38.8942 3.59004C38.5254 4.09492 37.8324 4.19589 37.3295 3.82565C34.3565 1.62662 30.2659 1.73882 26.9242 4.10614C21.7048 7.79736 17.8377 17.4686 22.6436 33.5125C24.7671 40.6144 20.1848 45.4164 15.893 47.8735C18.9889 48.3222 23.7277 48.4344 27.3824 46.0447C30.4336 44.0476 32.2442 40.592 32.7806 35.7788C32.8477 35.1617 33.4065 34.7242 34.0101 34.7915C34.6248 34.8588 35.0606 35.4198 34.9936 36.0257C34.3789 41.5457 32.2218 45.551 28.5895 47.9296C25.6724 49.8369 22.2748 50.3866 19.3242 50.3866V50.3754Z" fill="#A032C7"/>
<path d="M56.6759 50.3758C53.7141 50.3758 50.3165 49.826 47.4106 47.9187C43.7671 45.5402 41.61 41.5348 41.0065 36.0148C40.9394 35.3977 41.3753 34.848 41.99 34.7807C42.6047 34.7133 43.1524 35.1509 43.2194 35.768C43.7559 40.5811 45.5665 44.0368 48.6177 46.0338C52.2724 48.4236 57 48.3114 60.1071 47.8626C55.8153 45.4055 51.233 40.6036 53.3565 33.5016C58.1512 17.4577 54.2842 7.78651 49.0759 4.09529C45.7342 1.72797 41.6436 1.61578 38.6706 3.8148C38.1677 4.18505 37.4747 4.07285 37.1059 3.57919C36.7371 3.08553 36.8489 2.3787 37.3406 2.00846C41.1071 -0.76276 46.2147 -0.661784 50.3612 2.26651C53.2 4.2748 61.9624 12.5211 55.5024 34.1524C52.7753 43.285 63.5606 47.0324 64.03 47.1894C64.4883 47.3465 64.8012 47.7729 64.79 48.2665C64.7789 48.7602 64.4659 49.1753 64.0077 49.3211C63.7842 49.3885 60.6212 50.3758 56.6871 50.3758H56.6759Z" fill="#A032C7"/>
<path d="M38 38.2811C30.3106 38.2811 24.7559 27.1962 24.7559 19.724C24.7559 19.1069 25.2588 18.6021 25.8735 18.6021C26.4882 18.6021 26.9912 19.1069 26.9912 19.724C26.9912 26.9157 32.177 36.0372 38 36.0372C43.8229 36.0372 49.0088 26.9157 49.0088 19.724C49.0088 19.1069 49.5117 18.6021 50.1264 18.6021C50.7412 18.6021 51.2441 19.1069 51.2441 19.724C51.2441 27.1962 45.6782 38.2811 38 38.2811Z" fill="#A032C7"/>
<path d="M52.7194 20.4082C44.3147 20.4082 38.38 15.9541 36.1671 13.9907C34.4682 16.0551 30.1541 20.4082 23.9847 20.4082C23.37 20.4082 22.8671 19.9033 22.8671 19.2863C22.8671 18.6692 23.37 18.1643 23.9847 18.1643C30.7241 18.1643 35.0606 11.758 35.1053 11.6907C35.2953 11.4102 35.6082 11.2194 35.9435 11.197C36.2788 11.1633 36.6141 11.298 36.8488 11.5448C36.9159 11.6121 43.1635 18.1643 52.7194 18.1643C53.3341 18.1643 53.8371 18.6692 53.8371 19.2863C53.8371 19.9033 53.3341 20.4082 52.7194 20.4082Z" fill="#A032C7"/>
</g>
<defs>
<clipPath id="clip0_195_5265">
<rect width="76" height="92" fill="white"/>
</clipPath>
</defs>
</svg>
