<svg width="87" height="88" viewBox="0 0 87 88" fill="none" xmlns="http://www.w3.org/2000/svg">
<g clip-path="url(#clip0_195_5283)">
<path d="M78.2391 78.4705H8.7609C3.93172 78.4705 0 74.5212 0 69.6705V25.5417C0 20.691 3.93172 16.7417 8.7609 16.7417H35.8128C36.4005 16.7417 36.8812 17.2246 36.8812 17.8149C36.8812 18.4051 36.4005 18.888 35.8128 18.888H8.7609C5.10696 18.888 2.1368 21.8715 2.1368 25.5417V69.6705C2.1368 73.3407 5.10696 76.3241 8.7609 76.3241H78.2498C81.9037 76.3241 84.8739 73.3407 84.8739 69.6705V39.3963C84.8739 38.8061 85.3547 38.3232 85.9423 38.3232C86.5299 38.3232 87.0107 38.8061 87.0107 39.3963V69.6705C87.0107 74.5212 83.079 78.4705 78.2498 78.4705H78.2391Z" fill="#A032C7"/>
<path d="M45.92 73.2655H41.0801C40.4925 73.2655 40.0117 72.7826 40.0117 72.1923C40.0117 71.6021 40.4925 71.1191 41.0801 71.1191H45.92C46.5076 71.1191 46.9884 71.6021 46.9884 72.1923C46.9884 72.7826 46.5076 73.2655 45.92 73.2655Z" fill="#FBA226"/>
<path d="M85.9316 68.5218H1.0684C0.480781 68.5218 0 68.0389 0 67.4487C0 66.8584 0.480781 66.3755 1.0684 66.3755H85.9316C86.5192 66.3755 87 66.8584 87 67.4487C87 68.0389 86.5192 68.5218 85.9316 68.5218Z" fill="#A032C7"/>
<path d="M35.3535 88C35.3535 88 35.2894 88 35.2573 88C34.6697 87.9463 34.2423 87.4205 34.2958 86.8302L35.1825 77.3112C35.236 76.721 35.7702 76.2917 36.3471 76.3453C36.9347 76.399 37.3621 76.9249 37.3087 77.5151L36.4219 87.0341C36.3685 87.5922 35.9091 88.0107 35.3535 88.0107V88Z" fill="#A032C7"/>
<path d="M51.6572 88C51.1123 88 50.6422 87.5814 50.5888 87.0234L49.702 77.5044C49.6486 76.9141 50.076 76.3883 50.6636 76.3346C51.2512 76.2809 51.7747 76.7102 51.8281 77.3005L52.7149 86.8195C52.7683 87.4097 52.341 87.9356 51.7533 87.9892C51.7213 87.9892 51.6892 87.9892 51.6572 87.9892V88Z" fill="#A032C7"/>
<path d="M60.0228 87.9999H26.9878C26.4002 87.9999 25.9194 87.5169 25.9194 86.9267C25.9194 86.3364 26.4002 85.8535 26.9878 85.8535H60.0228C60.6105 85.8535 61.0912 86.3364 61.0912 86.9267C61.0912 87.5169 60.6105 87.9999 60.0228 87.9999Z" fill="#A032C7"/>
<path d="M74.7988 61.4392H12.2118C11.6242 61.4392 11.1434 60.9563 11.1434 60.366V26.2714C11.1434 25.6812 11.6242 25.1982 12.2118 25.1982H35.2466C35.8342 25.1982 36.315 25.6812 36.315 26.2714C36.315 26.8617 35.8342 27.3446 35.2466 27.3446H13.2802V59.2929H73.7304V49.2051C73.7304 48.6148 74.2112 48.1319 74.7988 48.1319C75.3865 48.1319 75.8672 48.6148 75.8672 49.2051V60.366C75.8672 60.9563 75.3865 61.4392 74.7988 61.4392Z" fill="#A032C7"/>
<path d="M68.4312 55.0428H30.2465C29.6589 55.0428 29.1781 54.5599 29.1781 53.9697C29.1781 53.3794 29.6589 52.8965 30.2465 52.8965H68.4312C69.0188 52.8965 69.4996 53.3794 69.4996 53.9697C69.4996 54.5599 69.0188 55.0428 68.4312 55.0428Z" fill="#A032C7"/>
<path d="M25.9943 55.0428H18.5689C17.9813 55.0428 17.5005 54.5599 17.5005 53.9697C17.5005 53.3794 17.9813 52.8965 18.5689 52.8965H25.9943C26.5819 52.8965 27.0627 53.3794 27.0627 53.9697C27.0627 54.5599 26.5819 55.0428 25.9943 55.0428Z" fill="#A032C7"/>
<path d="M28.1203 57.1783C26.3574 57.1783 24.9258 55.7403 24.9258 53.9695C24.9258 52.1988 26.3574 50.7607 28.1203 50.7607C29.8832 50.7607 31.3148 52.1988 31.3148 53.9695C31.3148 55.7403 29.8832 57.1783 28.1203 57.1783ZM28.1203 52.9071C27.5434 52.9071 27.0626 53.3793 27.0626 53.9695C27.0626 54.5598 27.5327 55.032 28.1203 55.032C28.7079 55.032 29.178 54.5598 29.178 53.9695C29.178 53.3793 28.7079 52.9071 28.1203 52.9071Z" fill="#FBA226"/>
<path d="M33.4197 37.9901H21.7527C21.1651 37.9901 20.6843 37.5072 20.6843 36.9169C20.6843 36.3267 21.1651 35.8438 21.7527 35.8438H33.4197C34.0073 35.8438 34.4881 36.3267 34.4881 36.9169C34.4881 37.5072 34.0073 37.9901 33.4197 37.9901Z" fill="#A032C7"/>
<path d="M28.1204 43.3241H21.7527C21.1651 43.3241 20.6843 42.8411 20.6843 42.2509C20.6843 41.6607 21.1651 41.1777 21.7527 41.1777H28.1204C28.708 41.1777 29.1888 41.6607 29.1888 42.2509C29.1888 42.8411 28.708 43.3241 28.1204 43.3241Z" fill="#A032C7"/>
<path d="M62.9716 48.2712C49.7234 48.2712 38.9432 37.4429 38.9432 24.1356C38.9432 10.8283 49.7234 0 62.9716 0C76.2198 0 87 10.8283 87 24.1356C87 37.4429 76.2198 48.2712 62.9716 48.2712ZM62.9716 2.14634C50.8987 2.14634 41.08 12.0088 41.08 24.1356C41.08 36.2624 50.8987 46.1249 62.9716 46.1249C75.0445 46.1249 84.8632 36.2624 84.8632 24.1356C84.8632 12.0088 75.0445 2.14634 62.9716 2.14634Z" fill="#A032C7"/>
<path d="M66.5614 37.8183C63.7195 37.8183 60.995 37.3461 59.2535 36.5413C57.9074 35.9295 56.1659 35.4037 54.7022 35.1783C54.1145 35.0925 53.7192 34.5452 53.8047 33.9549C53.8902 33.3647 54.4351 32.9676 55.0227 33.0534C56.6894 33.311 58.6018 33.8798 60.1403 34.5774C61.5934 35.2427 64.0507 35.6613 66.5614 35.6613C70.7389 35.6613 72.6941 34.7169 72.8864 32.6027C72.9184 32.313 73.0573 32.0447 73.2924 31.8622C73.9761 31.3256 74.521 30.1774 74.2326 29.3403C74.115 29.0076 74.1791 28.632 74.3928 28.3422C74.9697 27.5695 75.2689 26.4105 74.7561 25.7988C74.4676 25.4554 74.4249 24.9617 74.6492 24.5754C75.2796 23.4808 74.9911 22.912 74.895 22.7188C74.2112 21.3559 71.3692 20.4437 69.0081 20.1754C68.4204 20.111 68.0038 19.5744 68.0679 18.9842C68.132 18.3939 68.6662 17.9647 69.2538 18.0398C70.2581 18.1578 75.3651 18.8769 76.8074 21.753C77.1707 22.472 77.4271 23.6095 76.8074 25.0476C77.4378 26.3354 77.1386 27.9559 76.4014 29.19C76.6578 30.7032 75.942 32.27 74.9697 33.2252C74.2005 37.7861 68.4845 37.7861 66.5721 37.7861L66.5614 37.8183Z" fill="#FBA226"/>
<path d="M64.3071 26.7219C63.9225 26.7219 63.5379 26.5073 63.3563 26.1317C63.0892 25.6058 63.2922 24.9619 63.8264 24.6936C64.6063 24.2966 65.0871 23.7707 65.3007 23.0946C65.6213 22.0858 65.2473 21.0019 65.1405 20.7873C64.3926 19.3492 65.0871 18.0936 65.3862 17.557C65.664 17.0526 66.2089 16.0224 66.4546 15.5073C67.2025 13.9405 66.9568 12.3307 66.4119 11.4936C66.2089 11.1824 65.8136 10.8068 65.3755 10.8283C65.0764 10.8283 64.5849 10.8605 64.4033 12.1375C64.1148 14.2409 63.2281 16.28 62.0208 17.5892C60.7066 19.0166 59.7664 20.2936 58.7621 21.9785C58.0142 23.2448 56.3369 23.717 55.0655 23.8995C54.4778 23.9853 53.9436 23.5775 53.8582 22.9873C53.7727 22.397 54.1787 21.8605 54.7663 21.7746C56.0804 21.5922 56.7428 21.1844 56.9245 20.8731C58.0142 19.0487 59.0292 17.6751 60.4502 16.1297C61.369 15.1317 62.0528 13.5219 62.2879 11.837C62.6511 9.17557 64.3285 8.71411 65.2901 8.68192C66.4226 8.64972 67.491 9.23996 68.1961 10.3131C69.2859 11.9873 69.35 14.3805 68.3777 16.4302C68.1106 16.9883 67.5444 18.0614 67.2452 18.5873C66.9461 19.1239 66.8499 19.4244 67.0316 19.7785C67.3628 20.4224 67.8649 22.0751 67.3307 23.7278C66.9461 24.9405 66.07 25.9278 64.7879 26.5824C64.6277 26.6575 64.4674 26.7005 64.3071 26.7005V26.7219Z" fill="#FBA226"/>
<path d="M54.9159 36.3375H50.0867C49.4991 36.3375 49.0183 35.8546 49.0183 35.2644V21.0449C49.0183 20.4546 49.4991 19.9717 50.0867 19.9717H54.9159C55.5035 19.9717 55.9843 20.4546 55.9843 21.0449V35.2644C55.9843 35.8546 55.5035 36.3375 54.9159 36.3375ZM51.1444 34.1912H53.8368V22.118H51.1444V34.1912Z" fill="#A032C7"/>
</g>
<defs>
<clipPath id="clip0_195_5283">
<rect width="87" height="88" fill="white"/>
</clipPath>
</defs>
</svg>
