<svg width="165" height="165" viewBox="0 0 165 165" fill="none" xmlns="http://www.w3.org/2000/svg">
<g filter="url(#filter0_d_36_5)">
<circle cx="74.5" cy="74.5" r="57.5" fill="#FEFCFB"/>
<circle cx="74.5" cy="74.5" r="55.5" stroke="#E2D1BA" stroke-width="4"/>
</g>
<g clip-path="url(#clip0_36_5)">
<path d="M103.617 92.9053V65.7176C103.617 65.1488 103.275 64.58 102.693 64.4663L73.36 53.0907C73.0176 52.9769 72.6637 52.9769 72.3213 53.0907L43.9245 64.4663C43.3424 64.6938 43 65.1488 43 65.7176C43 66.2864 43.3424 66.8552 43.8104 67.0827L55.9315 72.7705V89.9476C55.9315 90.7439 56.6277 91.4265 57.4267 91.4265H89.1791C89.9895 91.4265 90.5601 90.7439 90.5601 89.9476V72.4292L100.718 67.879V92.9053C98.173 93.4741 96.3354 95.7492 96.3354 98.3656V105.532C96.3354 106.329 97.0316 107.011 97.8306 107.011H106.493C107.304 107.011 108 106.329 108 105.532V98.3656C107.886 95.7492 106.037 93.4741 103.617 92.9053ZM72.7893 55.8095L94.4978 64.2274H77.2976C76.7155 62.5211 75.1062 61.3835 73.2572 61.3835C70.8376 61.3835 68.8745 63.3174 68.8745 65.7062C68.8745 68.0951 70.8376 70.029 73.2572 70.029C75.1062 70.029 76.7155 68.8914 77.2976 67.1851H95.4223L72.6752 77.4231L47.9649 65.7176L72.7893 55.8095ZM74.6383 65.7176C74.6383 66.5139 73.9421 67.1964 73.2572 67.1964C72.4469 67.1964 71.7621 66.5139 71.7621 65.7176C71.7621 64.9213 72.4583 64.2388 73.2572 64.2388C74.0562 64.2388 74.6383 64.9213 74.6383 65.7176ZM87.6839 88.4688H58.8191V73.908L72.2072 80.1646C72.5496 80.3921 73.0176 80.3921 73.4741 80.1646L87.7867 73.6805V88.4688H87.6725H87.6839ZM104.998 104.053H99.223V98.3656C99.223 96.773 100.49 95.5217 102.111 95.5217C103.731 95.5217 104.998 96.773 104.998 98.3656V104.053Z" fill="#232020"/>
</g>
<defs>
<filter id="filter0_d_36_5" x="0" y="0" width="165" height="165" filterUnits="userSpaceOnUse" color-interpolation-filters="sRGB">
<feFlood flood-opacity="0" result="BackgroundImageFix"/>
<feColorMatrix in="SourceAlpha" type="matrix" values="0 0 0 0 0 0 0 0 0 0 0 0 0 0 0 0 0 0 127 0" result="hardAlpha"/>
<feOffset dx="8" dy="8"/>
<feGaussianBlur stdDeviation="12.5"/>
<feComposite in2="hardAlpha" operator="out"/>
<feColorMatrix type="matrix" values="0 0 0 0 0.282353 0 0 0 0 0.313726 0 0 0 0 0.329412 0 0 0 0.1 0"/>
<feBlend mode="normal" in2="BackgroundImageFix" result="effect1_dropShadow_36_5"/>
<feBlend mode="normal" in="SourceGraphic" in2="effect1_dropShadow_36_5" result="shape"/>
</filter>
<clipPath id="clip0_36_5">
<rect width="65" height="54" fill="white" transform="translate(43 53)"/>
</clipPath>
</defs>
</svg>
