<svg width="165" height="165" viewBox="0 0 165 165" fill="none" xmlns="http://www.w3.org/2000/svg">
<g filter="url(#filter0_d_36_6)">
<circle cx="74.5" cy="74.5" r="57.5" fill="#FEFCFB"/>
<circle cx="74.5" cy="74.5" r="55.5" stroke="#99DBFE" stroke-width="4"/>
</g>
<g clip-path="url(#clip0_36_6)">
<path d="M64.9695 84.7202C65.7298 84.7202 66.383 84.0802 66.383 83.4402V78.1069C66.383 77.3602 65.7298 76.7202 64.9695 76.7202C64.2092 76.7202 63.556 77.3602 63.556 78.1069V83.4402C63.6631 84.0802 64.3163 84.7202 64.9695 84.7202Z" fill="#232020"/>
<path d="M69.0816 84.7202C69.8419 84.7202 70.4951 84.0802 70.4951 83.4402V78.1069C70.4951 77.3602 69.8419 76.7202 69.0816 76.7202C68.3213 76.7202 67.6788 77.3602 67.6788 78.1069V83.4402C67.6788 84.0802 68.332 84.7202 69.0816 84.7202Z" fill="#232020"/>
<path d="M73.0865 84.7202C73.8468 84.7202 74.5 84.0802 74.5 83.4402V78.1069C74.5 77.3602 73.8468 76.7202 73.0865 76.7202C72.3262 76.7202 71.673 77.3602 71.673 78.1069V83.4402C71.7801 84.0802 72.4333 84.7202 73.0865 84.7202Z" fill="#232020"/>
<path d="M107 71.3867V63.28C107 61.1467 105.158 59.3334 102.995 59.3334H82.6277C84.2554 57.0934 85.3369 53.7867 85.3369 51.3334C85.3369 47.7067 83.2809 45.68 80.0255 45.68C79.1582 45.68 78.3979 45.8934 77.6376 46.2134C77.6376 45.2534 77.8517 44.5067 78.0659 44.1867C78.4942 43.6534 78.3871 42.8 77.8517 42.2667C77.3056 41.84 76.4382 41.9467 75.9028 42.48C75.2496 43.3334 75.0354 44.72 74.9283 46.1067C74.2751 45.7867 73.5148 45.68 72.7652 45.68C69.5206 45.68 67.4539 47.7067 67.4539 51.3334C67.4539 53.7867 68.5354 57.0934 70.1631 59.3334H52.7191C50.556 59.3334 48.7142 61.1467 48.7142 63.28V71.3867C48.7142 71.8134 48.8213 72.24 48.9283 72.6667H46.0049C43.8418 72.6667 42 74.48 42 76.6134V84.72C42 86.8534 43.8418 88.6667 46.0049 88.6667H49.0354C48.9283 89.0934 48.8213 89.52 48.8213 89.9467V98.0534C48.8213 100.187 50.6631 102 52.8262 102H102.984C105.147 102 106.989 100.187 106.989 98.0534V89.9467C106.989 87.8134 105.147 86 102.984 86H99.9539C100.061 85.5734 100.168 85.1467 100.168 84.72V76.6134C100.168 76.1867 100.061 75.76 99.9539 75.3334H102.877C105.147 75.3334 106.989 73.6267 106.989 71.3867H107ZM104.291 63.28V71.3867C104.291 72.1334 103.745 72.6667 102.995 72.6667H98.883V62H102.995C103.755 62 104.291 62.64 104.291 63.28ZM97.4588 76.6134V84.72C97.4588 85.4667 96.9127 86 96.1631 86H93.4539V75.3334H96.1631C96.9234 75.3334 97.4588 75.9734 97.4588 76.6134ZM85.3262 75.3334V86H60.9539V75.3334H85.3262ZM96.1631 62V72.6667H63.6631V62H96.1631ZM90.7446 86H88.0354V75.3334H90.7446V86ZM96.1631 88.6667V99.3334H63.6631V88.6667H96.1631ZM71.8979 56.88C70.9234 55.1734 70.2702 53.04 70.2702 51.3334C70.2702 50.3734 70.4844 49.6267 70.9234 49.0934C71.3624 48.56 72.0049 48.3467 72.8723 48.3467C73.8468 48.3467 74.8213 48.88 75.2603 49.7334C75.8064 50.6934 77.2092 50.6934 77.6483 49.7334C78.0766 48.88 79.0511 48.3467 80.0362 48.3467C81.0214 48.3467 81.6639 48.56 82.0923 49.0934C82.5206 49.6267 82.7455 50.3734 82.7455 51.3334C82.7455 53.04 82.0923 55.0667 81.1178 56.88C80.1433 58.5867 79.0618 59.3334 78.5157 59.3334C78.5157 59.3334 78.3015 59.3334 77.6483 59.12C76.888 58.9067 76.1277 58.9067 75.3781 59.12C74.832 59.3334 74.6178 59.3334 74.5107 59.3334C73.9646 59.3334 72.883 58.5867 71.9086 56.88H71.8979ZM60.9539 62V72.6667H58.2446V62H60.9539ZM51.4234 71.3867V63.28C51.4234 62.5334 51.9695 62 52.7191 62H55.5354V72.6667H52.8262C52.0659 72.6667 51.4234 72.1334 51.4234 71.3867ZM44.7092 84.72V76.6134C44.7092 75.8667 45.2554 75.3334 46.0049 75.3334H58.2446V86H46.0049C45.2446 86 44.7092 85.4667 44.7092 84.72ZM51.4234 98.0534V89.9467C51.4234 89.2 51.9695 88.6667 52.7191 88.6667H55.5354V99.3334H52.8262C52.0659 99.3334 51.4234 98.8 51.4234 98.0534ZM58.2446 99.3334V88.6667H60.9539V99.3334H58.2446ZM104.291 89.9467V98.0534C104.291 98.8 103.745 99.3334 102.995 99.3334H98.883V88.6667H102.995C103.755 88.6667 104.291 89.3067 104.291 89.9467Z" fill="#232020"/>
</g>
<defs>
<filter id="filter0_d_36_6" x="0" y="0" width="165" height="165" filterUnits="userSpaceOnUse" color-interpolation-filters="sRGB">
<feFlood flood-opacity="0" result="BackgroundImageFix"/>
<feColorMatrix in="SourceAlpha" type="matrix" values="0 0 0 0 0 0 0 0 0 0 0 0 0 0 0 0 0 0 127 0" result="hardAlpha"/>
<feOffset dx="8" dy="8"/>
<feGaussianBlur stdDeviation="12.5"/>
<feComposite in2="hardAlpha" operator="out"/>
<feColorMatrix type="matrix" values="0 0 0 0 0.282353 0 0 0 0 0.313726 0 0 0 0 0.329412 0 0 0 0.1 0"/>
<feBlend mode="normal" in2="BackgroundImageFix" result="effect1_dropShadow_36_6"/>
<feBlend mode="normal" in="SourceGraphic" in2="effect1_dropShadow_36_6" result="shape"/>
</filter>
<clipPath id="clip0_36_6">
<rect width="65" height="60" fill="white" transform="translate(42 42)"/>
</clipPath>
</defs>
</svg>
