<svg width="165" height="165" viewBox="0 0 165 165" fill="none" xmlns="http://www.w3.org/2000/svg">
<g filter="url(#filter0_d_36_7)">
<circle cx="74.5" cy="74.5" r="57.5" fill="#FEFCFB"/>
<circle cx="74.5" cy="74.5" r="55.5" stroke="#23BEC0" stroke-width="4"/>
</g>
<g clip-path="url(#clip0_36_7)">
<path d="M57.498 51.5882C57.498 52.2941 57.9833 52.8824 58.5751 53L64.4456 54.6471V59.7059C63.2502 61.5882 62.5282 63.8235 62.5282 66.0588C62.5282 72.5294 67.9134 77.8235 74.5059 77.8235C81.0984 77.8235 86.4836 72.5294 86.4836 66.0588C86.4836 63.8235 85.7617 61.7059 84.5663 59.7059V54.5294L88.5194 53.4706V66.0588C88.5194 66.8824 89.2414 67.5882 90.0817 67.5882C90.922 67.5882 91.6322 66.8824 91.6322 66.0588C91.6322 50.4118 91.6322 51.5882 91.6322 51.4706C91.6322 50.8824 91.2771 50.4118 90.6735 50.1765C90.5551 50.1765 91.6322 50.2941 74.6243 47H74.0207L58.6934 50.1765C58.0898 50.2941 57.498 50.8824 57.498 51.5882ZM74.6243 74.8824C69.7125 74.8824 65.641 70.8824 65.641 66.0588C65.641 64.5294 66.1144 63 66.8364 61.5882H82.282C83.1223 63 83.4774 64.4118 83.4774 66.0588C83.5957 70.8824 79.5243 74.8824 74.6124 74.8824H74.6243ZM81.6902 58.6471H67.5584V55.3529L74.0207 57.1176C74.2574 57.2353 74.5059 57.2353 74.861 57.1176L81.8085 55.2353L81.6902 58.6471ZM74.3876 49.9412L83.7259 51.8235L83.1223 51.9412C83.0039 51.9412 82.7672 52.0588 82.637 52.0588L74.4941 54.1765L65.5108 51.7059L74.3757 49.9412H74.3876Z" fill="#232020"/>
<path d="M87.0754 79.353H86.2351L82.5187 77.9413C82.0453 77.706 81.4416 77.8236 81.0866 78.1766L74.5059 83.353L67.9253 78.1766C67.5702 77.8236 66.9666 77.8236 66.4932 77.9413L62.7767 79.353H61.9364C54.7521 79.353 49.0118 85.0001 49.0118 92.0589V101.471C49.0118 102.294 49.7338 103 50.5623 103H98.4495C99.2899 103 100.012 102.294 100.012 101.471V92.0589C100.012 85.0001 94.2597 79.353 87.0754 79.353ZM82.282 81.0001L83.5957 81.4707L78.5656 88.4119L76.5298 85.4707L82.282 81.0001ZM66.8364 81.0001L72.5885 85.4707L70.5528 88.4119L65.5226 81.4707L66.8364 81.0001ZM97.0056 99.9413H92.4607V92.5295C92.4607 91.706 91.7387 91.0001 90.8984 91.0001C90.058 91.0001 89.336 91.706 89.336 92.5295V99.8236H59.4154V92.5295C59.4154 91.706 58.6934 91.0001 57.8531 91.0001C57.0128 91.0001 56.2908 91.706 56.2908 92.5295V99.8236H51.8642V91.9413C51.8642 86.5295 56.2908 82.1766 61.8062 82.1766H62.1613L69.2272 91.8236C69.8308 92.6471 71.1446 92.6471 71.7364 91.8236L74.3757 87.8236L77.0151 91.8236C77.6187 92.6471 78.9325 92.7648 79.5243 91.8236L86.5902 82.1766H86.9452C92.4488 82.1766 96.8872 86.5295 96.8872 91.9413L97.0056 99.9413Z" fill="#232020"/>
</g>
<defs>
<filter id="filter0_d_36_7" x="0" y="0" width="165" height="165" filterUnits="userSpaceOnUse" color-interpolation-filters="sRGB">
<feFlood flood-opacity="0" result="BackgroundImageFix"/>
<feColorMatrix in="SourceAlpha" type="matrix" values="0 0 0 0 0 0 0 0 0 0 0 0 0 0 0 0 0 0 127 0" result="hardAlpha"/>
<feOffset dx="8" dy="8"/>
<feGaussianBlur stdDeviation="12.5"/>
<feComposite in2="hardAlpha" operator="out"/>
<feColorMatrix type="matrix" values="0 0 0 0 0.282353 0 0 0 0 0.313726 0 0 0 0 0.329412 0 0 0 0.1 0"/>
<feBlend mode="normal" in2="BackgroundImageFix" result="effect1_dropShadow_36_7"/>
<feBlend mode="normal" in="SourceGraphic" in2="effect1_dropShadow_36_7" result="shape"/>
</filter>
<clipPath id="clip0_36_7">
<rect width="51" height="56" fill="white" transform="translate(49 47)"/>
</clipPath>
</defs>
</svg>
