<svg width="50" height="66" viewBox="0 0 50 66" fill="none" xmlns="http://www.w3.org/2000/svg">
<path id="Vector" d="M49.1963 43.3889C48.7709 43.248 38.8828 39.8648 41.3804 31.5793C47.4078 11.6094 39.2137 3.98169 36.5585 2.11784C32.9105 -0.435175 28.4668 -0.685778 25.0079 1.41302C21.549 -0.685778 17.1053 -0.443006 13.4573 2.11784C10.8021 3.98169 2.60794 11.6094 8.63536 31.5793C11.1251 39.8335 1.237 43.248 0.819414 43.3889C0.323038 43.5534 0 44.0076 0 44.5166C0 45.0257 0.338796 45.4721 0.827293 45.6287C0.976993 45.6757 2.49764 46.1377 4.67223 46.404C4.44374 46.8034 4.23101 47.2106 4.04192 47.6335C2.9625 50.0455 2.44248 52.8961 2.44248 56.3498V60.3437C2.44248 62.9202 4.54617 65.0112 7.13836 65.0112H42.8853C45.4775 65.0112 47.5812 62.9202 47.5812 60.3437V56.3498C47.5812 52.8961 47.0533 50.0455 45.9738 47.6335C45.7847 47.2106 45.572 46.8034 45.3435 46.404C47.5181 46.1377 49.0388 45.6757 49.1806 45.6287C49.6691 45.4721 50 45.0257 50.0079 44.5166C50.0079 44.0076 49.6848 43.5534 49.1963 43.3968V43.3889ZM10.8887 30.9058C6.46076 16.2299 10.0142 7.40398 14.8125 4.04434C17.8616 1.90639 21.5884 1.79675 24.2988 3.78591C24.3145 3.79374 24.3303 3.80157 24.346 3.81723C24.3776 3.84073 24.417 3.86422 24.4485 3.87988C24.48 3.89555 24.5194 3.91121 24.5509 3.92687C24.5824 3.94254 24.6218 3.95037 24.6612 3.96603C24.7006 3.97386 24.74 3.98952 24.7715 3.99735C24.8109 3.99735 24.8424 4.00519 24.8818 4.01302C24.9212 4.01302 24.9606 4.01302 25 4.01302C25.0394 4.01302 25.0788 4.01302 25.1182 4.01302C25.1576 4.01302 25.1891 4.00519 25.2285 3.99735C25.2679 3.99735 25.3073 3.98169 25.3388 3.96603C25.3782 3.9582 25.4097 3.94254 25.4491 3.92687C25.4806 3.91121 25.52 3.89555 25.5515 3.87988C25.5909 3.86422 25.6224 3.84073 25.654 3.81723C25.6697 3.8094 25.6855 3.80157 25.7012 3.78591C28.4116 1.80458 32.1384 1.90639 35.1875 4.04434C39.9858 7.41181 43.5392 16.2299 39.1113 30.9058C37.173 37.3196 41.1598 41.713 45.0756 44.0546C42.2234 44.407 38.1185 44.407 34.9275 42.3395C32.2881 40.6323 30.6729 37.719 30.0898 33.7094C34.242 30.7492 37.1809 24.5702 37.4251 19.01C37.827 19.0335 38.2367 19.0492 38.6621 19.0492C39.3161 19.0492 39.844 18.5245 39.844 17.8745C39.844 17.2245 39.3161 16.6998 38.6621 16.6998C29.8535 16.6998 24.0939 10.7245 24.0388 10.6618C23.7945 10.4034 23.44 10.2702 23.0775 10.2937C22.7151 10.3251 22.3921 10.513 22.1872 10.8106C22.1478 10.8733 18.1295 16.6998 11.9839 16.6998C11.33 16.6998 10.8021 17.2245 10.8021 17.8745C10.8021 18.5245 11.33 19.0492 11.9839 19.0492C12.1888 19.0492 12.3779 19.0335 12.5749 19.0257C12.8191 24.5781 15.758 30.757 19.9102 33.7094C19.3271 37.719 17.7041 40.6245 15.0725 42.3395C11.8815 44.4148 7.77655 44.4148 4.92436 44.0546C8.84021 41.713 12.827 37.3196 10.8887 30.9058ZM28.2777 32.0961C28.2304 32.1196 28.191 32.1431 28.1516 32.1745C27.151 32.7775 26.0873 33.1299 25 33.1299C23.9127 33.1299 22.849 32.7775 21.8484 32.1745C21.809 32.1431 21.7617 32.1196 21.7223 32.0961C17.972 29.7389 15.0804 23.7636 14.9307 18.6968C19.0435 17.6943 21.9587 14.8124 23.306 13.2148C25.1103 14.7811 29.2468 17.804 35.0615 18.7516C34.8881 23.8106 32.0123 29.7468 28.2698 32.0961H28.2777ZM22.1163 34.9154C23.046 35.2757 24.0072 35.4793 25 35.4793C25.9928 35.4793 26.9619 35.2757 27.8837 34.9154C28.1752 36.4974 28.6401 37.9227 29.2468 39.1913L28.3407 39.8178C26.3394 41.1962 23.6527 41.1962 21.6514 39.8178L20.7454 39.1913C21.352 37.9148 21.8169 36.4974 22.1084 34.9154H22.1163ZM43.8071 48.5889C44.7447 50.6955 45.2096 53.2329 45.2096 56.3498V60.3437C45.2096 61.6202 44.1617 62.6618 42.8774 62.6618H37.6142V51.9407C37.6142 51.2907 37.0864 50.766 36.4324 50.766C35.7784 50.766 35.2506 51.2907 35.2506 51.9407V62.6618H14.7494V51.9407C14.7494 51.2907 14.2216 50.766 13.5676 50.766C12.9136 50.766 12.3858 51.2907 12.3858 51.9407V62.6618H7.1226C5.83832 62.6618 4.79042 61.6202 4.79042 60.3437V56.3498C4.79042 53.2329 5.2474 50.6955 6.19288 48.5889C6.51592 47.8684 6.91774 47.2106 7.35897 46.5841C7.46139 46.5841 7.56382 46.5841 7.66625 46.5841C10.4396 46.5841 13.6149 46.0751 16.3489 44.3052C17.6174 43.4829 18.6889 42.457 19.5714 41.2275L20.312 41.7365C21.7145 42.7076 23.3612 43.1931 25.0079 43.1931C26.6546 43.1931 28.2934 42.7076 29.7038 41.7365L30.4444 41.2275C31.3268 42.457 32.3984 43.4829 33.6669 44.3052C36.4009 46.0751 39.584 46.5841 42.3495 46.5841C42.4519 46.5841 42.5544 46.5841 42.6568 46.5841C43.098 47.2028 43.4998 47.8684 43.8229 48.5889H43.8071Z" fill="#232020"/>
</svg>
