<svg width="40" height="62" viewBox="0 0 40 62" fill="none" xmlns="http://www.w3.org/2000/svg">
<path id="Vector" d="M30.2298 28.3388C30.689 29.0516 31.4141 29.5981 32.3083 29.804C32.5581 29.8595 32.8078 29.8912 33.0495 29.8912C33.6699 29.8912 34.2822 29.7169 34.8219 29.3763C35.265 29.0991 35.6195 28.7269 35.8854 28.2913L37.255 28.0616C38.1895 27.9269 38.9146 27.2933 39.0918 26.4617L39.9539 22.4936C40.1311 21.6778 39.7444 20.8066 38.979 20.2997L38.0203 19.6423C38.0445 19.2305 38.0687 18.8186 38.0687 18.4067C38.0767 8.25294 29.972 0 20.0062 0C10.0405 0 1.92769 8.25294 1.92769 18.4067C1.92769 18.8186 1.9438 19.2305 1.97603 19.6423L1.02537 20.2918C0.251959 20.8066 -0.134748 21.6778 0.0424927 22.4936L0.904527 26.4617C1.08982 27.2933 1.80684 27.9269 2.71722 28.0537L4.11097 28.2833C4.37683 28.711 4.73131 29.0912 5.17442 29.3684C5.63363 29.6615 6.14924 29.8199 6.68096 29.8595C7.93776 31.6099 10.113 32.2989 12.264 32.5049C13.0133 33.4236 13.8431 34.2394 14.7535 34.9126C14.6971 36.7343 14.3668 38.5322 13.9962 39.1341C13.1825 39.3163 12.3929 39.5064 11.6598 39.7361C11.6034 39.7519 11.5551 39.7678 11.5067 39.7836C4.07875 42.0805 0.727286 46.7376 0.727286 54.5549V57.8894C0.727286 60.1546 2.60443 62 4.90856 62H16.7837C17.4524 62 17.9921 61.4693 17.9921 60.812C17.9921 60.1546 17.4524 59.6239 16.7837 59.6239H11.5551V50.872C11.5551 50.2146 11.0153 49.684 10.3466 49.684C9.67794 49.684 9.13816 50.2146 9.13816 50.872V59.6239H4.9005C3.92567 59.6239 3.13615 58.8477 3.13615 57.8894V54.5549C3.13615 48.0761 5.58529 44.3378 11.4262 42.3022L14.8501 47.5534C15.0516 47.8544 15.3738 48.0524 15.7364 48.092C16.0989 48.1316 16.4614 48.0049 16.7192 47.7514L19.9901 44.5358L23.261 47.7514C23.5188 48.0049 23.8814 48.1316 24.2439 48.092C24.6064 48.0524 24.9368 47.8544 25.1301 47.5534L28.5541 42.3022C34.395 44.3378 36.8441 48.0761 36.8441 54.5549V57.8894C36.8441 58.8477 36.0546 59.6239 35.0798 59.6239H30.8421V50.872C30.8421 50.2146 30.3023 49.684 29.6336 49.684C28.9649 49.684 28.4252 50.2146 28.4252 50.872V59.6239H23.1966C22.5279 59.6239 21.9881 60.1546 21.9881 60.812C21.9881 61.4693 22.5279 62 23.1966 62H35.0717C37.3758 62 39.253 60.1546 39.253 57.8894V54.5549C39.253 46.7376 35.9015 42.0884 28.4816 39.7836C28.4252 39.7598 28.3607 39.744 28.3043 39.7282C27.5712 39.5064 26.7897 39.3084 25.976 39.1341C25.5974 38.5322 25.2751 36.7343 25.2187 34.9126C27.3617 33.3365 29.0939 30.9287 30.2056 28.3388H30.2298ZM20.0062 34.3899C18.403 34.3899 16.8884 33.6533 15.5752 32.5049C16.2358 32.4494 16.8159 32.3702 17.2751 32.2989C17.4282 32.5365 17.6215 32.7504 17.8552 32.9246C18.2338 33.2018 18.685 33.3444 19.1442 33.3444C19.257 33.3444 19.3778 33.3365 19.4906 33.3206L21.5208 33.0038C22.7212 32.8137 23.5511 31.6811 23.3658 30.4852L23.2288 29.5823C23.1402 28.9882 22.8179 28.4655 22.3345 28.117C21.8592 27.7764 21.2711 27.6339 20.6991 27.7289L18.6689 28.0457C17.6699 28.2041 16.9368 29.0199 16.824 29.9862C15.9055 30.1367 14.7293 30.2476 13.545 30.2317C12.6669 28.9645 11.966 27.5309 11.4987 26.1053C11.5873 25.9548 11.6679 25.7885 11.7162 25.6063L13.3114 18.3434C13.3758 18.3355 13.4322 18.3434 13.4886 18.3751L19.8693 21.6937C20.3124 21.9234 20.8522 21.86 21.2308 21.5353C21.6095 21.2105 21.7384 20.6878 21.5692 20.2284L20.6749 17.8602C22.1654 18.5255 24.5903 19.4285 26.9428 19.4918C27.0717 20.1571 27.7807 23.8084 28.3204 25.7409C28.3607 25.8914 28.4252 26.0261 28.5057 26.1607C27.1361 30.2793 23.833 34.4136 20.0143 34.4136L20.0062 34.3899ZM19.3295 30.9366L19.2409 30.3505L20.8763 30.0971L20.965 30.6832L19.3295 30.9366ZM4.60241 20.1175C4.48157 19.5631 4.81188 19.0166 5.32749 18.8978C5.39194 18.882 5.45639 18.874 5.52084 18.874C5.69003 18.874 5.85115 18.9216 5.99617 19.0087C6.22175 19.1513 6.38287 19.3809 6.43927 19.6502L7.87331 26.2557C7.99415 26.8102 7.66384 27.3567 7.14823 27.4755C6.9146 27.5309 6.68096 27.4834 6.47955 27.3567C6.25397 27.2141 6.09284 26.9844 6.03645 26.7151L4.60241 20.1096V20.1175ZM29.9478 22.1768C29.6256 20.6957 29.3597 19.3017 29.3033 18.9928C29.1986 17.9157 28.2721 17.1078 27.112 17.092C24.0264 17.0603 20.4655 15.0881 20.4332 15.0644C20.3204 15.001 20.1996 14.9535 20.0787 14.9297C19.4262 14.7951 18.7656 14.9931 18.3063 15.4525C17.8713 15.8881 17.686 16.498 17.823 17.0841C17.8391 17.1395 17.8552 17.1949 17.8713 17.2425L18.1936 18.0979L14.6085 16.2366C13.5128 15.6742 12.1271 15.9119 11.3214 16.8068C11.1845 16.9573 11.0878 17.1474 11.0475 17.3454L10.0324 21.963C9.2429 16.9494 9.64571 13.5437 11.2409 11.5953C12.7474 9.74987 15.4463 8.91032 19.974 8.87864C24.5178 8.91032 27.2328 9.75779 28.7555 11.6191C30.3829 13.5991 30.7776 17.0682 29.9478 22.1689V22.1768ZM33.5249 27.3646C33.3235 27.4913 33.0818 27.5309 32.8562 27.4834C32.3325 27.3646 32.0103 26.8181 32.1311 26.2637L33.5651 19.6581C33.6215 19.3809 33.7827 19.1592 34.0083 19.0166C34.2097 18.8899 34.4514 18.8503 34.685 18.8978C35.2087 19.0166 35.5309 19.5631 35.4101 20.1175L33.976 26.723C33.9196 27.0003 33.7585 27.222 33.5329 27.3646H33.5249ZM36.7877 25.733L36.6588 25.7568L37.4483 22.1372L37.5611 22.2164L36.7958 25.733H36.7877ZM20.0062 2.37609C28.0707 2.37609 34.7333 8.65687 35.5712 16.696C35.4584 16.6564 35.3456 16.6088 35.2248 16.5772C34.3788 16.3871 33.5168 16.5296 32.7756 16.9732C32.6951 14.0268 31.9861 11.7854 30.6407 10.138C28.6749 7.73812 25.4926 6.60552 20.3849 6.51839C20.256 6.50255 20.119 6.51839 19.9821 6.51839C19.8451 6.51839 19.7162 6.51839 19.5792 6.51839C14.4876 6.60552 11.3214 7.7302 9.36374 10.1142C8.01832 11.7616 7.30936 14.0031 7.23685 16.9732C6.49566 16.5296 5.62557 16.3871 4.78771 16.5772C4.66686 16.6009 4.56213 16.6564 4.44128 16.696C5.27915 8.65687 11.9337 2.37609 20.0062 2.37609ZM2.45135 22.2085L2.56414 22.1293L3.35367 25.7488L3.22477 25.7251L2.45941 22.2006L2.45135 22.2085ZM9.16233 29.0278C9.39597 28.8219 9.60543 28.5922 9.77462 28.3388C9.97603 28.8061 10.1935 29.2655 10.4352 29.7248C9.95991 29.5506 9.51681 29.3288 9.16233 29.0358V29.0278ZM16.0828 45.0347L13.8431 41.6053C14.0284 41.5577 14.2137 41.5181 14.407 41.4706L17.6296 43.514L16.0828 45.0347ZM23.9216 45.0347L22.3748 43.514L25.5974 41.4706C25.7907 41.5102 25.976 41.5577 26.1613 41.6053L23.9216 45.0347ZM23.6961 39.847L19.9982 42.1914L16.3003 39.847C16.7756 38.7777 17.0012 37.3838 17.0979 36.2195C18.0163 36.568 18.9911 36.766 19.9982 36.766C21.0052 36.766 21.972 36.568 22.8985 36.2115C22.9952 37.3679 23.2207 38.7698 23.6961 39.839V39.847Z" fill="#232020"/>
</svg>
