<svg width="83" height="63" viewBox="0 0 83 63" fill="none" xmlns="http://www.w3.org/2000/svg">
<g id="Group 1">
<path id="Vector" d="M72.59 4.83H52.96C52.63 2.11 50.31 0 47.51 0H35.51C32.71 0 30.39 2.11 30.06 4.83H10.41C4.67 4.83 0 9.5 0 15.24V51.9C0 57.64 4.67 62.31 10.41 62.31H72.58C78.32 62.31 82.99 57.64 82.99 51.9V15.24C82.99 9.5 78.32 4.83 72.58 4.83H72.59ZM33 5.5C33 4.12 34.12 3 35.5 3H47.5C48.88 3 50 4.12 50 5.5V6.32V6.45C50 7.83 48.88 8.95 47.5 8.95H35.5C34.12 8.95 33 7.83 33 6.45V5.48V5.5ZM80 51.9C80 55.99 76.67 59.31 72.59 59.31H10.41C6.32 59.31 3 55.98 3 51.9V15.24C3 11.15 6.33 7.83 10.41 7.83H30.17C30.78 10.2 32.93 11.97 35.49 11.97H47.49C50.05 11.97 52.2 10.21 52.81 7.83H72.57C76.66 7.83 79.98 11.16 79.98 15.24V51.9H80Z" fill="#232020"/>
<path id="Vector_2" d="M71.16 21.3799H47.95C47.12 21.3799 46.45 22.0499 46.45 22.8799C46.45 23.7099 47.12 24.3799 47.95 24.3799H71.16C71.99 24.3799 72.66 23.7099 72.66 22.8799C72.66 22.0499 71.99 21.3799 71.16 21.3799Z" fill="#232020"/>
<path id="Vector_3" d="M71.16 28.9697H47.95C47.12 28.9697 46.45 29.6397 46.45 30.4697C46.45 31.2997 47.12 31.9697 47.95 31.9697H71.16C71.99 31.9697 72.66 31.2997 72.66 30.4697C72.66 29.6397 71.99 28.9697 71.16 28.9697Z" fill="#232020"/>
<path id="Vector_4" d="M71.16 36.5498H47.95C47.12 36.5498 46.45 37.2198 46.45 38.0498C46.45 38.8798 47.12 39.5498 47.95 39.5498H71.16C71.99 39.5498 72.66 38.8798 72.66 38.0498C72.66 37.2198 71.99 36.5498 71.16 36.5498Z" fill="#232020"/>
<path id="Vector_5" d="M58.0499 44.1401H47.95C47.12 44.1401 46.45 44.8101 46.45 45.6401C46.45 46.4701 47.12 47.1401 47.95 47.1401H58.0499C58.8799 47.1401 59.5499 46.4701 59.5499 45.6401C59.5499 44.8101 58.8799 44.1401 58.0499 44.1401Z" fill="#232020"/>
<path id="Vector_6" d="M30.55 37.99C30.36 37.49 30.19 36.46 30.14 35.4C32.06 33.86 33.55 31.52 34.36 29.1C34.75 28.83 35.04 28.43 35.15 27.95C36.5 21.79 36.19 17.76 34.18 15.27C32.55 13.24 29.96 12.29 25.82 12.21C25.7 12.21 25.59 12.21 25.48 12.21C25.37 12.21 25.25 12.21 25.14 12.21C21.03 12.29 18.45 13.24 16.82 15.25C14.82 17.73 14.52 21.75 15.86 27.9C15.97 28.38 16.25 28.78 16.63 29.05C17.44 31.49 18.93 33.86 20.86 35.4C20.81 36.45 20.64 37.49 20.45 37.98C13.24 39.67 10 43.58 10 50.62V51.38C10 53.48 11.71 55.18 13.8 55.18H37.2C39.3 55.18 41 53.47 41 51.38V50.62C41 43.58 37.76 39.67 30.55 37.98V37.99ZM19.15 17.13C20.19 15.84 22.2 15.22 25.48 15.2C28.77 15.23 30.8 15.85 31.84 17.15C32.62 18.12 32.99 19.6 32.97 21.64C32.58 20.98 31.86 20.55 31.01 20.54C28.77 20.52 26.13 19.03 26.11 19.02C25.97 18.94 25.82 18.89 25.67 18.85C25.53 18.82 25.39 18.81 25.25 18.81C24.7 18.81 24.17 19.03 23.78 19.42C23.41 19.79 23.21 20.29 23.21 20.8L21.58 19.94C20.5 19.38 19.15 19.62 18.35 20.52C18.2 20.69 18.09 20.89 18.03 21.1C18.07 19.33 18.44 18.01 19.15 17.13ZM19.5 28.2C19.54 28.11 19.6 28.02 19.62 27.92L20.71 22.88L25.12 25.21C25.67 25.5 26.34 25.42 26.81 25.01C27.28 24.6 27.44 23.94 27.23 23.36L26.99 22.7C27.98 23.07 29.19 23.41 30.4 23.51C30.59 24.52 31.04 26.75 31.39 28.05C31.41 28.12 31.45 28.18 31.48 28.24C30.44 31.26 28.04 34.17 25.5 34.17C22.96 34.17 20.54 31.24 19.5 28.2ZM25.5 37.17C26.1 37.17 26.69 37.08 27.25 36.92C27.33 37.58 27.48 38.25 27.69 38.85L25.5 40.37L23.31 38.85C23.52 38.25 23.67 37.58 23.75 36.92C24.32 37.08 24.9 37.17 25.5 37.17ZM38 51.39C38 51.83 37.64 52.19 37.2 52.19H34.48V47.72C34.48 46.89 33.81 46.22 32.98 46.22C32.15 46.22 31.48 46.89 31.48 47.72V52.19H19.52V47.72C19.52 46.89 18.85 46.22 18.02 46.22C17.19 46.22 16.52 46.89 16.52 47.72V52.19H13.8C13.36 52.19 13 51.83 13 51.39V50.63C13 45.06 15.26 42.29 21.03 40.93L25.5 44.03L29.97 40.93C35.74 42.29 38 45.06 38 50.63V51.39Z" fill="#232020"/>
</g>
</svg>
