<svg width="83" height="44" viewBox="0 0 83 44" fill="none" xmlns="http://www.w3.org/2000/svg">
<g id="Layer_1" clip-path="url(#clip0_1_97)">
<path id="Vector" d="M53.38 33.67L62.66 33.67L62.66 41.1C62.66 41.76 63.42 42.11 63.93 41.69L81.3 27.19C81.56 26.97 81.56 26.57 81.3 26.35L63.92 11.85C63.42 11.43 62.65 11.79 62.65 12.44L62.65 19.87L45.43 19.87" stroke="#24899A" stroke-width="3" stroke-linecap="round" stroke-linejoin="round"/>
<path id="Vector_2" d="M22.39 15.98L33.96 15.98L33.96 21C33.96 21.36 34.39 21.56 34.67 21.33L46.03 11.8801C46.29 11.6601 46.29 11.2601 46.03 11.0401L34.67 1.60005C34.39 1.37005 33.96 1.57005 33.96 1.93005L33.96 6.95005L6.93998 6.95005" stroke="#24899A" stroke-width="3" stroke-linecap="round" stroke-linejoin="round"/>
<path id="Vector_3" d="M17.28 15.98L15.08 15.98" stroke="#24899A" stroke-width="3" stroke-linecap="round" stroke-linejoin="round"/>
<path id="Vector_4" d="M1.84998 6.94995L1.49998 6.94995" stroke="#24899A" stroke-width="3" stroke-linecap="round" stroke-linejoin="round"/>
</g>
<defs>
<clipPath id="clip0_1_97">
<rect width="43.37" height="83" fill="white" transform="translate(83) rotate(90)"/>
</clipPath>
</defs>
</svg>
