<svg width="206" height="56" viewBox="0 0 206 56" fill="none" xmlns="http://www.w3.org/2000/svg">
<g clip-path="url(#clip0_1_739)">
<path d="M67.6727 28.0948C67.6727 43.6111 55.1191 56 39.6338 56C24.1485 56 11.5967 43.6111 11.5967 28.0948C11.5967 12.5786 24.1485 0 39.6338 0C55.1191 0 67.6727 12.5786 67.6727 28.0948Z" fill="#99DBFE"/>
<path d="M39.2691 11.148L19.8326 22.6373C19.3532 22.9209 19.3637 23.6205 19.8534 23.8885L39.29 34.5059C39.5036 34.6225 39.7624 34.6225 39.9777 34.5059L59.4142 23.8885C59.904 23.6205 59.9162 22.9209 59.4351 22.6373L39.9986 11.148C39.7728 11.0158 39.4949 11.0158 39.2691 11.148Z" fill="#A032C7"/>
<path d="M39.6338 23.1421L49.2001 26.325V35.1586L39.6338 36.4203V23.1421Z" fill="#8D6BED"/>
<path d="M39.6338 23.1421L30.0692 26.325V35.1586L39.6338 36.4203V23.1421Z" fill="#A032C7"/>
<path d="M66.344 37.9028C65.8768 36.6846 64.51 36.0599 63.2334 36.4775C61.4984 37.0448 59.2232 37.8245 57.0139 38.813C51.3381 41.3085 45.9158 44.4706 40.8791 48.2191C40.3702 48.5985 40.2295 49.3033 40.5578 49.8462C40.8826 50.3805 41.5564 50.5858 42.1226 50.3196L53.582 44.9265C57.2449 43.2019 60.9617 41.935 64.6246 41.1606L64.8035 41.1171C64.8139 41.1136 64.8261 41.1118 64.8365 41.1084C65.4635 40.8978 65.9862 40.4366 66.2693 39.838C66.5559 39.2341 66.5837 38.5293 66.344 37.9045V37.9028Z" fill="#A032C7"/>
<path d="M79.2328 46.5014C78.9566 44.4983 77.2216 43.1496 75.1947 43.3654L75.1461 43.3706C64.1105 44.829 53.0384 47.6656 42.2007 51.8074C41.1778 52.199 40.6307 53.3162 40.9468 54.3656C41.2594 55.4046 42.3136 56.0311 43.3748 55.8066L56.1907 53.0865C62.6324 51.7187 69.1767 50.8816 75.7557 50.6415C75.8026 50.6415 75.8495 50.638 75.8946 50.6362C75.919 50.6362 75.9433 50.6345 75.9676 50.631L76.1291 50.6154C76.1656 50.6119 76.2038 50.6067 76.2403 50.5997C78.2202 50.236 79.5037 48.4835 79.231 46.5014H79.2328Z" fill="#A032C7"/>
<path d="M0.036529 46.5014C0.31268 44.4983 2.04774 43.1496 4.07459 43.3654L4.12322 43.3706C15.1588 44.829 26.2309 47.6656 37.0686 51.8074C38.0915 52.199 38.6386 53.3162 38.3225 54.3656C38.0099 55.4046 36.9557 56.0311 35.8945 55.8066L23.0786 53.0865C16.6369 51.7187 10.0926 50.8816 3.5136 50.6415C3.46671 50.6415 3.41981 50.638 3.37466 50.6362C3.35034 50.6362 3.32603 50.6345 3.30171 50.631L3.14019 50.6154C3.10372 50.6119 3.06551 50.6067 3.02903 50.5997C1.04908 50.236 -0.234412 48.4835 0.0382658 46.5014H0.036529Z" fill="#FBA226"/>
<path d="M12.9253 37.9028C13.3925 36.6846 14.7594 36.0599 16.0359 36.4775C17.771 37.0448 20.0462 37.8245 22.2554 38.813C27.9312 41.3085 33.3535 44.4706 38.3902 48.2191C38.8991 48.5985 39.0398 49.3033 38.7116 49.8462C38.3868 50.3805 37.7129 50.5858 37.1467 50.3196L25.6873 44.9265C22.0244 43.2019 18.3076 41.935 14.6447 41.1606L14.4658 41.1171C14.4554 41.1136 14.4433 41.1118 14.4328 41.1084C13.8059 40.8978 13.2831 40.4366 13 39.838C12.7134 39.2341 12.6856 38.5293 12.9253 37.9045V37.9028Z" fill="#FBA226"/>
<path d="M97.6082 19.8757C95.1507 19.8966 93.3496 18.8298 92.601 16.9312L95.6057 15.9062C95.927 16.5257 96.6478 16.8877 97.6082 16.8877C98.7302 16.8877 99.3572 16.6963 99.3572 16.3326C99.3572 14.9456 92.2676 17.1644 92.2676 12.6832C92.2676 10.2068 94.1902 8.81982 97.6082 8.81982C100.078 8.81982 101.881 9.88661 102.615 11.8079L99.6108 12.8329C99.3034 12.1716 98.5826 11.8079 97.6082 11.8079C96.4863 11.8079 95.8593 12.0219 95.8593 12.4048C95.8593 13.6421 102.949 11.5729 102.949 16.0541C102.949 18.5514 101.026 19.9175 97.6082 19.874V19.8757Z" fill="#232020"/>
<path d="M110.601 12.6621V19.705H106.862V12.6621H103.724V9.03369H113.738V12.6621H110.599H110.601Z" fill="#232020"/>
<path d="M116.437 18.0396L115.782 19.705H112.177L116.609 9.03369H120.348L124.728 19.705H121.123L120.482 18.0396H116.437ZM118.479 12.8762L117.531 15.2656H119.4L118.479 12.8762Z" fill="#232020"/>
<path d="M135.411 17.9752V19.7033H132.073V17.0789C132.073 16.2262 131.62 15.7563 130.805 15.7563H129.204V19.705H125.465V9.03369H132.261C134.317 9.03369 135.479 10.271 135.479 12.4481C135.479 13.6437 135.106 14.5399 134.411 15.095C135.066 15.6919 135.413 16.6752 135.413 17.9769L135.411 17.9752ZM132.139 12.5125C132.139 12.1923 131.846 12.0217 131.339 12.0217H129.202V12.9824H131.339C131.846 12.9824 132.139 12.8118 132.139 12.5125Z" fill="#232020"/>
<path d="M143.397 12.6621V19.705H139.658V12.6621H136.52V9.03369H146.534V12.6621H143.396H143.397Z" fill="#232020"/>
<path d="M155.548 19.8757C153.09 19.8966 151.289 18.8298 150.541 16.9312L153.545 15.9062C153.867 16.5257 154.587 16.8877 155.548 16.8877C156.67 16.8877 157.297 16.6963 157.297 16.3326C157.297 14.9456 150.207 17.1644 150.207 12.6832C150.207 10.2068 152.13 8.81982 155.548 8.81982C158.018 8.81982 159.82 9.88661 160.555 11.8079L157.55 12.8329C157.243 12.1716 156.522 11.8079 155.548 11.8079C154.426 11.8079 153.799 12.0219 153.799 12.4048C153.799 13.6421 160.888 11.5729 160.888 16.0541C160.888 18.5514 158.966 19.9175 155.548 19.874V19.8757Z" fill="#232020"/>
<path d="M171.971 12.5125C171.971 14.7313 170.809 15.9704 168.753 15.9704H165.694V19.705H161.955V9.03369H168.751C170.807 9.03369 171.969 10.2936 171.969 12.5125H171.971ZM168.633 12.5125C168.633 12.2132 168.339 12.0426 167.832 12.0217H165.696V12.9824H167.832C168.339 12.9824 168.633 12.8118 168.633 12.5125Z" fill="#232020"/>
<path d="M176.778 12.9824H182.053V15.7563H176.778V16.717H182.053V19.705H173.041V9.03369H182.053V12.0217H176.778V12.9824Z" fill="#232020"/>
<path d="M187.088 18.0396L186.433 19.705H182.828L187.26 9.03369H190.999L195.38 19.705H191.774L191.133 18.0396H187.088ZM189.131 12.8762L188.182 15.2656H190.051L189.131 12.8762Z" fill="#232020"/>
<path d="M200.428 16.482L199.854 17.2512V19.705H196.114V9.03369H199.854V12.3628L202.391 9.03369H206.13L202.619 13.6228L206.196 19.705H202.325L200.428 16.482Z" fill="#232020"/>
<path d="M98.3481 34.1022H106.928V38.6148H98.3481V40.1775H106.928V45.0381H92.2676V27.6807H106.928V32.5412H98.3481V34.104V34.1022Z" fill="#232020"/>
<path d="M109.101 27.6458H114.313L119.308 35.4561V27.6806H125.388V45.038L120.176 45.0032L115.181 37.1911V45.0363H109.099V27.644L109.101 27.6458Z" fill="#232020"/>
<path d="M141.402 45.0382L140.728 43.2683C139.316 44.6571 137.622 45.3862 135.689 45.3862C130.26 45.3862 127.219 42.1232 127.219 36.3612C127.219 30.5992 130.26 27.3345 135.689 27.3345C140.337 27.3345 143.248 29.7291 143.965 34.0345L137.97 35.2492C137.709 33.9301 136.928 33.2357 135.71 33.2357C134.168 33.2357 133.299 34.346 133.299 36.3612C133.299 38.3765 134.168 39.485 135.71 39.485C136.361 39.485 136.882 39.2762 137.273 38.8951H135.71V36.3612H144.16L144.073 45.0399H141.402V45.0382Z" fill="#232020"/>
<path d="M160.972 45.0381H146.312V27.6807H152.394V39.1368H160.974V45.0381H160.972Z" fill="#232020"/>
<path d="M169.053 45.0381H162.971V27.6807H169.053V45.0381Z" fill="#232020"/>
<path d="M179.479 45.315C175.483 45.3498 172.551 43.6147 171.334 40.524L176.221 38.8568C176.742 39.8644 177.914 40.4544 179.479 40.4544C181.303 40.4544 182.324 40.1411 182.324 39.5512C182.324 37.2941 170.79 40.9051 170.79 33.6152C170.79 29.5882 173.918 27.3311 179.478 27.3311C183.496 27.3311 186.428 29.0661 187.623 32.1916L182.736 33.8588C182.236 32.7833 181.063 32.1916 179.478 32.1916C177.654 32.1916 176.633 32.5397 176.633 33.1644C176.633 35.1779 188.167 31.8105 188.167 39.1005C188.167 43.1622 185.039 45.3846 179.479 45.315Z" fill="#232020"/>
<path d="M206.196 45.0381H200.116V39.3109H195.989V45.0381H189.907V27.6807H195.989V33.4079H200.116V27.6807H206.196V45.0381Z" fill="#232020"/>
</g>
<defs>
<clipPath id="clip0_1_739">
<rect width="206" height="56" fill="white"/>
</clipPath>
</defs>
</svg>
