<svg width="129" height="84" viewBox="0 0 129 84" fill="none" xmlns="http://www.w3.org/2000/svg">
<g id="Layer_1" clip-path="url(#clip0_1_3097)">
<path id="Vector" fill-rule="evenodd" clip-rule="evenodd" d="M100.766 20.1206V75.4322C100.478 79.0949 81.623 79.5305 78.9616 79.5789C68.1555 79.7564 49.333 78.7399 39.1201 75.5451C37.8535 75.1418 34.4224 74.0768 34.3102 72.5117V17.2002C34.3102 14.199 49.1887 12.4241 67.5462 13.2309C85.9038 14.0376 100.782 17.1195 100.782 20.1206H100.766Z" fill="url(#paint0_linear_1_3097)"/>
<path id="Vector_2" fill-rule="evenodd" clip-rule="evenodd" d="M86.0321 35.2716L104.261 24.6708L104.502 24.5255L104.758 24.3965L105.015 24.2996L105.271 24.2028L105.544 24.1544L105.817 24.106L106.089 24.0899L106.362 24.106L106.634 24.1222L106.907 24.1867L88.6775 34.7875L88.4049 34.723L88.1163 34.6907H87.8438L87.5712 34.7069L87.2987 34.7391L87.0421 34.8037L86.7856 34.8844L86.5291 34.9973L86.2726 35.1264L86.0321 35.2716Z" fill="url(#paint1_linear_1_3097)"/>
<path id="Vector_3" fill-rule="evenodd" clip-rule="evenodd" d="M14.4776 24.7353L32.723 14.1345L32.4023 14.3119L32.1137 14.5217L31.8251 14.7476L31.5526 15.0058L31.3121 15.2962L31.0716 15.6028L30.8471 15.9577L30.6387 16.345L30.4623 16.7484L30.302 17.2163L30.1577 17.7003L30.0455 18.2328L29.9493 18.7975L29.8852 19.4268L29.8531 20.0884L29.8852 20.7338L29.9653 21.3308L30.0936 21.8794L30.2699 22.3957L30.4944 22.8798L30.7509 23.3154L31.0395 23.7188L31.3602 24.0576L31.6969 24.3803L32.0656 24.6385L32.4344 24.8644L32.8192 25.0257L33.22 25.1548L33.6208 25.2355L34.0056 25.2678L34.3904 25.2516L34.7752 25.171L35.1279 25.058L35.4806 24.8805L17.2353 35.4814L16.8986 35.6427L16.5459 35.7718L16.1611 35.8363L15.7763 35.8686L15.3755 35.8363L14.9746 35.7557L14.5899 35.6266L14.2051 35.4491L13.8203 35.2393L13.4676 34.965L13.1309 34.6585L12.8102 34.3035L12.5216 33.9163L12.2651 33.4806L12.0406 32.9965L11.8643 32.4802L11.736 31.9155L11.6398 31.3185L11.6238 30.6892L11.6558 30.0115L11.72 29.3984L11.8162 28.8337L11.9284 28.3012L12.0727 27.801L12.233 27.3492L12.4094 26.9297L12.6178 26.5586L12.8262 26.2036L13.0667 25.8809L13.3233 25.6066L13.5958 25.3484L13.8844 25.1064L14.173 24.9128L14.4776 24.7353Z" fill="url(#paint2_linear_1_3097)"/>
<path id="Vector_4" fill-rule="evenodd" clip-rule="evenodd" d="M18.2774 29.0273L36.5067 18.4264C36.9717 18.2973 37.9016 18.6362 38.3665 18.9428C40.547 20.3949 41.1562 23.6704 40.3385 26.1552C39.4407 28.8498 38.0298 31.1087 35.6089 32.6254L17.3635 43.2263C18.3255 42.5809 18.9828 42.0968 19.7524 41.161C21.1793 39.4506 22.5742 36.5302 22.4459 34.1099C22.3177 31.8025 20.8106 28.8982 18.2614 29.0273H18.2774Z" fill="url(#paint3_linear_1_3097)"/>
<path id="Vector_5" fill-rule="evenodd" clip-rule="evenodd" d="M93.311 24.5094V79.821C93.0224 83.4837 74.1678 83.9193 71.5063 83.9677C60.7002 84.1452 41.8777 83.1287 31.6648 79.9339C30.3982 79.5305 26.9672 78.4656 26.8549 76.9005V21.5889C26.8549 18.5878 41.7334 16.8129 60.091 17.6197C78.4485 18.4264 93.327 21.5083 93.327 24.5094H93.311Z" fill="url(#paint4_linear_1_3097)"/>
<path id="Vector_6" fill-rule="evenodd" clip-rule="evenodd" d="M88.6775 34.7876L106.907 24.1867L106.65 25.0741L106.458 25.897L106.362 26.6715L106.33 27.3976L106.362 28.0753L106.458 28.7046L106.618 29.2693L106.827 29.7856L107.099 30.2536L107.388 30.6731L107.74 31.028L108.109 31.3346L108.51 31.5928L108.927 31.7864L109.376 31.9478L109.825 32.0446L110.29 32.093L110.755 32.0768L111.22 32.0284L111.669 31.9155L112.117 31.7541L112.534 31.5282L94.305 42.1291L93.8721 42.355L93.4392 42.5163L92.9743 42.6131L92.5253 42.6777H92.0604L91.5954 42.6454L91.1305 42.5486L90.6976 42.3872L90.2808 42.1936L89.8639 41.9355L89.4951 41.6289L89.1585 41.2578L88.8538 40.8544L88.5973 40.3865L88.3889 39.8701L88.2286 39.2893L88.1324 38.6761L88.0843 37.9985L88.1163 37.2724L88.2286 36.4979L88.4049 35.6589L88.6775 34.7876Z" fill="url(#paint5_linear_1_3097)"/>
<path id="Vector_7" fill-rule="evenodd" clip-rule="evenodd" d="M21.5641 10.6654C31.5846 11.2785 41.7975 11.9078 52.2509 12.5532C62.9288 13.2148 73.8632 13.8924 85.038 14.5701C94.6577 15.1671 109.344 18.6685 110.674 34.5939C112.406 55.4407 89.431 58.7806 84.1883 42.3227C82.6972 37.6435 85.7114 34.0453 88.6615 34.7714C85.3587 44.4687 97.1588 45.2593 96.4374 37.0788C95.7961 29.5759 89.8639 29.4145 85.7274 29.108C74.28 28.2367 63.1052 27.3815 52.1708 26.5586C41.4929 25.7518 31.0556 24.9451 20.8266 24.1706C17.2513 23.8963 12.201 23.2347 11.6238 30.0115C10.9825 37.3692 21.0511 38.5632 18.2614 29.0273C20.8106 28.7691 23.44 32.5932 22.0932 36.7561C17.4597 51.1648 -1.39485 44.033 0.0801651 25.768C1.21849 11.7303 13.3072 10.1491 21.5641 10.6654Z" fill="url(#paint6_linear_1_3097)"/>
<path id="Vector_8" fill-rule="evenodd" clip-rule="evenodd" d="M61.7584 83.7741C61.7584 80.0146 61.7905 76.2551 61.8065 72.4956C61.8386 63.1049 61.8706 53.7142 61.9187 44.3235C61.9348 44.0814 61.9508 45.7111 61.9508 43.5813C61.9508 41.4514 59.4336 36.3204 56.3393 36.3204C53.245 36.3204 50.7439 41.3869 50.7439 43.5006C50.7439 45.6143 50.7439 44.0008 50.7759 44.2428C50.7439 53.5367 50.7278 62.8144 50.6958 72.0922L50.6637 82.9512H50.8561L52.3952 83.1287L53.9665 83.2739L55.5697 83.403L57.2051 83.5159L58.8725 83.6289L60.5559 83.7257L61.7584 83.7902V83.7741Z" fill="white"/>
<path id="Vector_9" fill-rule="evenodd" clip-rule="evenodd" d="M42.3587 81.8379L42.3908 71.0918C42.4228 61.8947 42.4389 52.6976 42.4709 43.4844C42.4709 43.2424 42.4709 44.8398 42.4709 42.7422C42.4709 40.6608 40.7073 35.4814 38.5268 35.3039C36.3464 35.1264 34.5667 39.9508 34.5667 42.0161C34.5667 44.0814 34.5667 42.5002 34.5828 42.7422C34.5667 51.8909 34.5347 61.0073 34.5186 70.1076V80.0953L34.695 80.1598L35.6249 80.418L36.6189 80.66L37.6611 80.902L38.7673 81.1441L39.9217 81.3699L41.1242 81.5958L42.3427 81.8056L42.3587 81.8379Z" fill="white"/>
<path id="Vector_10" fill-rule="evenodd" clip-rule="evenodd" d="M78.8814 83.8064L78.9295 73.3346C78.9776 63.7826 79.0257 54.2144 79.0738 44.6301C79.0738 44.3719 79.0738 46.0338 79.1059 43.8717C79.1059 41.6934 77.214 36.8045 74.8572 37.2078C72.5004 37.6112 70.5764 43.0972 70.5764 45.2432C70.5764 47.3892 70.5764 45.7434 70.5925 45.9854C70.5444 55.4729 70.4963 64.9604 70.4642 74.4318C70.4642 77.6105 70.4321 80.8052 70.4161 83.9839H70.5764H72.1477H73.6868L75.1939 83.9355L76.6689 83.8871L78.0958 83.8225L78.8654 83.7903L78.8814 83.8064Z" fill="white"/>
<path id="Vector_11" fill-rule="evenodd" clip-rule="evenodd" d="M59.5779 83.7741C59.5779 80.0146 59.61 76.2551 59.626 72.4956C59.6581 63.1049 59.6901 53.7142 59.7382 44.3235C59.7543 44.0814 59.7703 45.7111 59.7703 43.5813C59.7703 41.4514 57.2532 36.3204 54.1588 36.3204C51.0645 36.3204 48.5634 41.3869 48.5634 43.5006C48.5634 45.6143 48.5634 44.0008 48.5954 44.2428C48.5634 53.5367 48.5473 62.8144 48.5153 72.0922L48.4832 82.9512H48.6756L50.2148 83.1287L51.786 83.2739L53.3893 83.403L55.0246 83.5159L56.692 83.6289L58.3755 83.7257L59.5779 83.7902V83.7741Z" fill="#EBE3DE"/>
<path id="Vector_12" fill-rule="evenodd" clip-rule="evenodd" d="M40.1782 81.8379L40.2103 71.0918C40.2424 61.8947 40.2584 52.6976 40.2905 43.4844C40.2905 43.2424 40.2905 44.8398 40.2905 42.7422C40.2905 40.6608 38.5269 35.4814 36.3464 35.3039C34.1659 35.1264 32.3863 39.9508 32.3863 42.0161C32.3863 44.0814 32.3863 42.5002 32.4023 42.7422C32.3863 51.8909 32.3542 61.0073 32.3382 70.1076V80.0953L32.5146 80.1598L33.4445 80.418L34.4385 80.66L35.4806 80.902L36.5869 81.1441L37.7413 81.3699L38.9437 81.5958L40.1622 81.8056L40.1782 81.8379Z" fill="#EBE3DE"/>
<path id="Vector_13" fill-rule="evenodd" clip-rule="evenodd" d="M76.6849 83.8064L76.733 73.3346C76.7811 63.7826 76.8292 54.2144 76.8773 44.6301C76.8773 44.3719 76.8934 46.0338 76.9094 43.8717C76.9094 41.6934 75.0175 36.8045 72.6607 37.2078C70.3039 37.6112 68.3799 43.0972 68.3799 45.2432C68.3799 47.3892 68.3799 45.7434 68.396 45.9854C68.3479 55.4729 68.2998 64.9604 68.2677 74.4318C68.2677 77.6105 68.2356 80.8052 68.2196 83.9839H68.3799H69.9512H71.4903L72.9974 83.9355L74.4724 83.8871L75.8993 83.8225L76.6689 83.7903L76.6849 83.8064Z" fill="#EBE3DE"/>
<path id="Vector_14" fill-rule="evenodd" clip-rule="evenodd" d="M60.8926 83.8225C60.8926 80.0469 60.9247 76.2712 60.9407 72.4956C60.9728 63.1049 61.0049 53.7142 61.0529 44.3235C61.069 44.0814 61.085 45.7111 61.085 43.5813C61.085 41.4514 58.5679 36.3204 55.4735 36.3204C52.3792 36.3204 49.8781 41.3869 49.8781 43.5006C49.8781 45.6143 49.8781 44.0008 49.9101 44.2428C49.8781 53.5367 49.862 62.8144 49.83 72.0922L49.7979 83.0803L50.2308 83.1287L51.802 83.2739L53.4053 83.403L55.0406 83.5159L56.7081 83.6289L58.3915 83.7257L60.107 83.8064L60.9087 83.8386L60.8926 83.8225Z" fill="url(#paint7_linear_1_3097)"/>
<path id="Vector_15" fill-rule="evenodd" clip-rule="evenodd" d="M41.4769 82.0476L41.509 71.0918C41.541 61.8947 41.5571 52.6977 41.5891 43.4844C41.5891 43.2424 41.5891 44.8398 41.5891 42.7422C41.5891 40.6608 39.8255 35.4814 37.645 35.3039C35.4646 35.1264 33.6849 39.9508 33.6849 42.0161C33.6849 44.0814 33.6849 42.5002 33.701 42.7422C33.6849 51.8909 33.6529 61.0073 33.6368 70.1076V80.4502L34.4224 80.66L35.4646 80.902L36.5708 81.1441L37.7252 81.3699L38.9277 81.5958L40.1782 81.8056L41.4448 82.0154L41.4769 82.0476Z" fill="url(#paint8_linear_1_3097)"/>
<path id="Vector_16" fill-rule="evenodd" clip-rule="evenodd" d="M77.9996 83.7257L78.0477 73.3346C78.0958 63.7826 78.1439 54.2144 78.192 44.6301C78.192 44.3719 78.192 46.0338 78.2241 43.8717C78.2241 41.6934 76.3322 36.8045 73.9754 37.2078C71.6186 37.6112 69.6946 43.0972 69.6946 45.2432C69.6946 47.3892 69.6946 45.7434 69.7107 45.9854C69.6626 55.4729 69.6145 64.9604 69.5824 74.4318C69.5824 77.6105 69.5503 80.8052 69.5343 83.9839H69.9672L71.5063 83.9677L73.0134 83.9355L74.4884 83.8871L75.9154 83.8225L77.3102 83.758L77.9996 83.7096V83.7257Z" fill="url(#paint9_linear_1_3097)"/>
<path id="Vector_17" fill-rule="evenodd" clip-rule="evenodd" d="M103.267 3.96926C111.925 4.5824 121.657 7.11563 126.306 15.2317C129.513 20.8144 129.994 29.4629 126.932 35.1425C125.954 36.9497 124.367 38.8052 122.667 39.9508L104.438 50.5517C105.544 49.7126 106.33 49.0834 107.211 47.9862C110.514 43.9201 111.22 38.1921 110.498 33.1418C108.606 19.8302 96.8221 15.3446 85.022 14.5701L52.2349 12.5532L21.5481 10.6654C17.091 10.4072 12.201 10.7461 8.14467 12.763L7.37509 13.1825L25.6204 2.58163C30.302 -0.0322737 35.5447 -0.193626 40.7394 0.112943L103.267 3.96926Z" fill="url(#paint10_linear_1_3097)"/>
<path id="Vector_18" fill-rule="evenodd" clip-rule="evenodd" d="M21.5641 9.19707C31.5846 9.81021 41.7975 10.4395 52.2509 11.0849C62.9288 11.7464 73.8632 12.4241 85.038 13.1018C94.6577 13.6988 109.344 17.2001 110.674 33.1256C110.755 34.1583 110.787 35.1425 110.755 36.0784C110.755 35.5943 110.723 35.0941 110.674 34.5939C109.344 18.6685 94.6577 15.1671 85.038 14.5701C73.8632 13.8763 62.9288 13.2147 52.2509 12.5532C41.7975 11.9078 31.5846 11.2785 21.5641 10.6654C13.3072 10.1491 1.21849 11.7303 0.0801592 25.768C0.0480936 26.2036 0.016028 26.6393 0.016028 27.0588C-0.0160376 26.1713 0.016028 25.2516 0.0801592 24.2996C1.21849 10.2781 13.3072 8.68075 21.5641 9.19707ZM83.8356 39.1763C84.1402 36.3365 86.1764 34.4487 88.2767 34.7069C88.3728 34.2712 88.5011 33.8033 88.6614 33.3192C86.0802 32.6738 83.4347 35.3523 83.8195 39.1763H83.8356ZM88.1324 37.224C88.7095 42.6293 95.8922 42.5647 96.4534 37.0465V37.0949C97.0947 44.5171 87.4269 44.5494 88.1324 37.224ZM11.6558 29.9308V30.0115C11.0626 36.7238 19.3837 38.305 18.7423 31.3023C18.2133 36.159 12.1849 34.9812 11.6558 29.9308ZM18.6301 29.0273C20.4258 29.0918 22.1734 31.1087 22.4459 33.771C22.7987 30.2535 20.522 27.3653 18.2774 27.5751C18.4217 28.0914 18.5339 28.5755 18.6141 29.0273H18.6301Z" fill="white"/>
<path id="Vector_19" fill-rule="evenodd" clip-rule="evenodd" d="M110.755 37.4821C111.204 56.8767 89.3028 59.6358 84.1883 43.6135C83.8356 42.5163 83.7394 41.4837 83.8195 40.5478C83.8676 41.1126 83.9799 41.7096 84.1883 42.3388C89.1745 57.99 110.242 55.7149 110.755 37.4821ZM88.3248 35.9977C88.1003 36.9658 88.0522 37.8371 88.1163 38.5793C88.1805 37.821 88.3568 36.9819 88.6775 36.0622C88.5653 36.03 88.453 36.0138 88.3248 35.9977ZM96.4694 38.4018C96.5015 37.9985 96.5015 37.5628 96.4694 37.0949C95.8281 29.592 89.896 29.4306 85.7595 29.1241C74.3121 28.2528 63.1372 27.3976 52.2028 26.5747C41.525 25.768 31.0876 24.9612 20.8587 24.1867C17.2834 23.9124 12.233 23.2509 11.6559 30.0277C11.6078 30.4794 11.6238 30.9151 11.6559 31.3346C12.2491 24.5255 17.2834 25.2032 20.8587 25.4614C31.0876 26.2359 41.525 27.0426 52.2028 27.8494C63.1212 28.6884 74.3121 29.5275 85.7595 30.3988C89.896 30.7215 95.8281 30.8667 96.4694 38.3696V38.4018ZM18.7424 32.6738C18.6782 31.98 18.5339 31.1894 18.2774 30.302C18.3736 30.302 18.4858 30.302 18.582 30.302C18.7584 31.2055 18.7905 31.9962 18.7424 32.6738ZM22.4459 35.1264C22.5261 36.0461 22.4459 37.0303 22.1093 38.0307C17.588 52.0684 -0.432878 45.6627 8.38144e-06 28.4464C0.448927 44.6946 17.6842 50.4387 22.1093 36.756C22.2856 36.2074 22.3978 35.6588 22.4459 35.1264Z" fill="#B08F7E"/>
</g>
<defs>
<linearGradient id="paint0_linear_1_3097" x1="35.7211" y1="46.3242" x2="104.213" y2="46.3242" gradientUnits="userSpaceOnUse">
<stop stop-color="#E5DDDB"/>
<stop offset="0.11" stop-color="white"/>
<stop offset="0.84" stop-color="#E5DDDB"/>
<stop offset="1" stop-color="#B7958B"/>
</linearGradient>
<linearGradient id="paint1_linear_1_3097" x1="107.211" y1="30.6569" x2="85.7254" y2="28.7769" gradientUnits="userSpaceOnUse">
<stop stop-color="#ADC2A5"/>
<stop offset="0.03" stop-color="#B2C5AA"/>
<stop offset="0.19" stop-color="#CDDAC9"/>
<stop offset="0.37" stop-color="#E3EAE0"/>
<stop offset="0.55" stop-color="#F2F6F1"/>
<stop offset="0.75" stop-color="#FCFCFB"/>
<stop offset="1" stop-color="white"/>
</linearGradient>
<linearGradient id="paint2_linear_1_3097" x1="27.9612" y1="37.466" x2="21.121" y2="20.6672" gradientUnits="userSpaceOnUse">
<stop stop-color="#E5DDDB"/>
<stop offset="0.37" stop-color="white"/>
<stop offset="0.65" stop-color="#E5DDDB"/>
<stop offset="1" stop-color="#B7958B"/>
</linearGradient>
<linearGradient id="paint3_linear_1_3097" x1="33.3963" y1="40.9351" x2="24.539" y2="24.3625" gradientUnits="userSpaceOnUse">
<stop stop-color="#E5DDDB"/>
<stop offset="0.37" stop-color="white"/>
<stop offset="0.65" stop-color="#E5DDDB"/>
<stop offset="1" stop-color="#B7958B"/>
</linearGradient>
<linearGradient id="paint4_linear_1_3097" x1="28.2819" y1="50.6969" x2="96.758" y2="50.6969" gradientUnits="userSpaceOnUse">
<stop stop-color="#E5DDDB"/>
<stop offset="0.11" stop-color="white"/>
<stop offset="0.84" stop-color="#E5DDDB"/>
<stop offset="1" stop-color="#B7958B"/>
</linearGradient>
<linearGradient id="paint5_linear_1_3097" x1="104.213" y1="43.4683" x2="97.1346" y2="29.0628" gradientUnits="userSpaceOnUse">
<stop stop-color="#E5DDDB"/>
<stop offset="0.37" stop-color="white"/>
<stop offset="0.65" stop-color="#E5DDDB"/>
<stop offset="1" stop-color="#B7958B"/>
</linearGradient>
<linearGradient id="paint6_linear_1_3097" x1="55.7782" y1="55.4729" x2="54.9338" y2="7.21264" gradientUnits="userSpaceOnUse">
<stop stop-color="#CCBFBC"/>
<stop offset="0.09" stop-color="#D6CBC9"/>
<stop offset="0.28" stop-color="#E8E2E0"/>
<stop offset="0.49" stop-color="#F4F2F1"/>
<stop offset="0.72" stop-color="#FCFBFB"/>
<stop offset="1" stop-color="white"/>
</linearGradient>
<linearGradient id="paint7_linear_1_3097" x1="49.6376" y1="60.0715" x2="59.6581" y2="60.0715" gradientUnits="userSpaceOnUse">
<stop stop-color="#CCBFBC"/>
<stop offset="0.09" stop-color="#D6CBC9"/>
<stop offset="0.28" stop-color="#E8E2E0"/>
<stop offset="0.49" stop-color="#F4F2F1"/>
<stop offset="0.72" stop-color="#FCFBFB"/>
<stop offset="1" stop-color="white"/>
</linearGradient>
<linearGradient id="paint8_linear_1_3097" x1="33.5406" y1="58.6838" x2="40.5951" y2="58.6838" gradientUnits="userSpaceOnUse">
<stop stop-color="#CCBFBC"/>
<stop offset="0.09" stop-color="#D6CBC9"/>
<stop offset="0.28" stop-color="#E8E2E0"/>
<stop offset="0.49" stop-color="#F4F2F1"/>
<stop offset="0.72" stop-color="#FCFBFB"/>
<stop offset="1" stop-color="white"/>
</linearGradient>
<linearGradient id="paint9_linear_1_3097" x1="69.4381" y1="60.5878" x2="77.1339" y2="60.5878" gradientUnits="userSpaceOnUse">
<stop stop-color="#CCBFBC"/>
<stop offset="0.09" stop-color="#D6CBC9"/>
<stop offset="0.28" stop-color="#E8E2E0"/>
<stop offset="0.49" stop-color="#F4F2F1"/>
<stop offset="0.72" stop-color="#FCFBFB"/>
<stop offset="1" stop-color="white"/>
</linearGradient>
<linearGradient id="paint10_linear_1_3097" x1="71.843" y1="23.6542" x2="91.0312" y2="59.5022" gradientUnits="userSpaceOnUse">
<stop stop-color="#E5DDDB"/>
<stop offset="0.11" stop-color="white"/>
<stop offset="0.47" stop-color="#E5DDDB"/>
<stop offset="0.85" stop-color="#C8B1AA"/>
<stop offset="1" stop-color="#E5DDDB"/>
</linearGradient>
<clipPath id="clip0_1_3097">
<rect width="129" height="84" fill="white"/>
</clipPath>
</defs>
</svg>
