<svg width="111" height="104" viewBox="0 0 111 104" fill="none" xmlns="http://www.w3.org/2000/svg">
<g id="Layer_1" clip-path="url(#clip0_1_2295)">
<path id="Vector" fill-rule="evenodd" clip-rule="evenodd" d="M66.2701 98.3564L110.04 91.6777L110.877 89.5583L66.344 97.2967L64.3746 92.9839L60.9774 93.1317L61.6421 96.8038L18.98 102.842L18.4631 104.025L62.0113 98.7754V98.8246C62.0113 98.8246 63.2176 99.564 64.2515 99.3422C65.31 99.1204 66.1717 98.4796 66.1717 98.4796L66.2947 98.381L66.2701 98.3564Z" fill="url(#paint0_linear_1_2295)"/>
<path id="Vector_2" fill-rule="evenodd" clip-rule="evenodd" d="M66.2701 97.1735L66.147 97.272C66.147 97.272 65.2362 98.2825 64.1776 98.5043C63.1191 98.7261 61.9867 97.6171 61.9867 97.6171L60.9528 91.9242L64.35 91.7763L66.2701 97.1981V97.1735Z" fill="url(#paint1_linear_1_2295)"/>
<path id="Vector_3" fill-rule="evenodd" clip-rule="evenodd" d="M66.0732 97.3213L48.1271 38.6427L91.0107 33.4427L110.877 89.5583L66.0732 97.3213Z" fill="url(#paint2_linear_1_2295)"/>
<path id="Vector_4" fill-rule="evenodd" clip-rule="evenodd" d="M18.98 102.817L0.221558 49.782L45.7146 39.4806L62.1344 97.6171L18.98 102.817Z" fill="url(#paint3_linear_1_2295)"/>
<path id="Vector_5" fill-rule="evenodd" clip-rule="evenodd" d="M19.9155 101.166L3.07718 49.1412L45.7146 39.4806L61.5682 96.8777L19.9155 101.166Z" fill="#071519"/>
<path id="Vector_6" fill-rule="evenodd" clip-rule="evenodd" d="M65.507 96.582L45.7392 37.5336L88.5981 32.309L108.932 89.09L65.507 96.582Z" fill="#071519"/>
<path id="Vector_7" fill-rule="evenodd" clip-rule="evenodd" d="M64.0053 93.0578C58.0233 73.49 52.0412 53.9223 46.0592 34.3791C57.6048 29.8446 75.1078 27.7005 89.6321 24.3488C96.2542 43.054 102.876 61.7592 109.498 80.4645C92.0692 84.5308 74.1723 88.5725 64.0053 93.0578Z" fill="url(#paint4_linear_1_2295)"/>
<path id="Vector_8" fill-rule="evenodd" clip-rule="evenodd" d="M64.0053 93.0578L46.0838 34.3792L6.37592 32.4569L22.5742 92.4417L64.0053 93.0578Z" fill="url(#paint5_linear_1_2295)"/>
<path id="Vector_9" fill-rule="evenodd" clip-rule="evenodd" d="M64.0053 93.0578L46.0592 34.3791L8.93613 32.5801C11.1763 40.5649 23.3373 89.5336 24.6174 90.6673C25.8975 91.8009 34.1936 90.8152 44.0898 90.4701C53.986 90.1251 58.4418 90.618 62.6514 93.0578H64.0053Z" fill="url(#paint6_linear_1_2295)"/>
<path id="Vector_10" fill-rule="evenodd" clip-rule="evenodd" d="M20.1863 99.4408C14.1796 79.9469 9.25615 60.2559 1.67398 44.1877L4.03725 38.5194L5.5143 38.9384L4.97272 36.1289C5.58815 34.5763 5.98203 33.2209 6.40053 32.4569C11.7917 52.4436 17.183 72.455 22.5742 92.4417C22.0326 94.1422 20.7279 97.7649 20.1863 99.4408Z" fill="url(#paint7_linear_1_2295)"/>
<g id="Group">
<path id="Vector_11" fill-rule="evenodd" clip-rule="evenodd" d="M73.9015 27.6512C81.0898 26.2464 82.8377 25.9261 89.6567 24.3488C96.2788 43.054 102.901 61.7592 109.523 80.4645C72.7691 91.8749 63.9069 36.3014 73.9261 27.6512H73.9015Z" fill="#E4E1E7"/>
<path id="Vector_12" fill-rule="evenodd" clip-rule="evenodd" d="M74.4185 27.5772C81.6068 26.1725 82.813 25.9754 89.6075 24.3981C96.2049 43.0787 102.827 61.7592 109.424 80.4152C73.7538 91.037 65.3347 36.0303 74.4185 27.5526V27.5772Z" fill="#E5E2E8"/>
<path id="Vector_13" fill-rule="evenodd" clip-rule="evenodd" d="M74.9601 27.5033C82.1238 26.0986 82.7884 26.0246 89.5828 24.4474C96.1803 43.1033 102.778 61.7346 109.375 80.3905C74.7878 90.2483 66.7871 35.8085 74.9601 27.5033Z" fill="#E7E4E9"/>
<path id="Vector_14" fill-rule="evenodd" clip-rule="evenodd" d="M75.477 27.4047C82.6407 26 82.7638 26.0493 89.5336 24.4967C96.1311 43.1033 102.704 61.7346 109.301 80.3412C75.7971 89.4104 68.2395 35.5374 75.477 27.4047Z" fill="#E8E5EB"/>
<path id="Vector_15" fill-rule="evenodd" clip-rule="evenodd" d="M76.0186 27.3308C83.1577 25.9261 82.7392 26.0986 89.509 24.546C96.0818 43.128 102.655 61.71 109.252 80.292C76.831 88.5725 69.692 35.2664 76.0433 27.3308H76.0186Z" fill="#E9E6EC"/>
<path id="Vector_16" fill-rule="evenodd" clip-rule="evenodd" d="M76.5356 27.2569C83.6747 25.8521 82.7146 26.1479 89.4598 24.5953C96.0326 43.1526 102.581 61.71 109.154 80.2673C77.8157 87.7592 71.1198 35.0199 76.5356 27.2569Z" fill="#EBE8ED"/>
<path id="Vector_17" fill-rule="evenodd" clip-rule="evenodd" d="M77.0772 27.1829C84.1916 25.7782 82.69 26.1972 89.4351 24.6445C95.9834 43.1772 102.556 61.7099 109.104 80.218C78.8742 86.9213 72.5722 34.7735 77.0772 27.1829Z" fill="#ECE9EE"/>
<path id="Vector_18" fill-rule="evenodd" clip-rule="evenodd" d="M77.5942 27.0844C84.7086 25.6796 82.6653 26.2218 89.3859 24.6692C95.9341 43.1526 102.482 61.6607 109.031 80.1687C79.8836 86.0834 74.0246 34.5024 77.5942 27.0844Z" fill="#EDEBEF"/>
<path id="Vector_19" fill-rule="evenodd" clip-rule="evenodd" d="M78.1357 27.0104C85.2502 25.6057 82.6407 26.2711 89.3613 24.7185C95.8849 43.1772 102.433 61.6606 108.957 80.1194C80.8929 85.2455 75.4524 34.2313 78.1111 27.0104H78.1357Z" fill="#EFECF0"/>
<path id="Vector_20" fill-rule="evenodd" clip-rule="evenodd" d="M78.6527 26.9365C85.7425 25.5318 82.6161 26.3204 89.312 24.7678C95.8357 43.2019 102.359 61.636 108.883 80.0702C81.9022 84.4322 76.9049 33.9602 78.6527 26.9365Z" fill="#F0EEF2"/>
<path id="Vector_21" fill-rule="evenodd" clip-rule="evenodd" d="M79.1943 26.8379C86.2841 25.4578 82.5915 26.345 89.2874 24.7924C95.8111 43.2019 102.31 61.6114 108.834 80.0209C82.9361 83.5943 78.3573 33.7137 79.1943 26.8379Z" fill="#F1F0F3"/>
<path id="Vector_22" fill-rule="evenodd" clip-rule="evenodd" d="M79.7112 26.764C86.7764 25.3839 82.5669 26.3943 89.2382 24.8417C95.7372 43.2265 102.236 61.5867 108.76 79.9716C83.9454 82.7564 79.8097 33.4427 79.7112 26.764Z" fill="#F3F1F4"/>
<path id="Vector_23" fill-rule="evenodd" clip-rule="evenodd" d="M80.2528 26.69C87.318 25.3099 82.5423 26.4436 89.2136 24.891C95.7126 43.2265 102.187 61.5867 108.686 79.9223C84.9794 81.9185 81.2375 33.1716 80.2282 26.6654L80.2528 26.69Z" fill="#F4F3F6"/>
<path id="Vector_24" fill-rule="evenodd" clip-rule="evenodd" d="M80.7698 26.6161C87.8104 25.236 82.5176 26.4929 89.1643 24.9649C95.6387 43.2758 102.138 61.6114 108.612 79.9223C85.9887 81.1299 82.69 32.9744 80.7698 26.6408V26.6161Z" fill="#F6F5F7"/>
<path id="Vector_25" fill-rule="evenodd" clip-rule="evenodd" d="M81.3114 26.5175C88.352 25.1374 82.493 26.5175 89.1643 24.9896C95.6387 43.2758 102.113 61.5621 108.587 79.8484C87.0472 80.2673 84.167 32.6787 81.336 26.5175H81.3114Z" fill="#F7F6F9"/>
<path id="Vector_26" fill-rule="evenodd" clip-rule="evenodd" d="M81.8283 26.4436C88.8443 25.0635 82.4684 26.5668 89.1151 25.0389C95.5649 43.3005 102.039 61.5621 108.489 79.7991C88.0319 79.454 85.5948 32.4076 81.8283 26.4436Z" fill="#F9F8FB"/>
<path id="Vector_27" fill-rule="evenodd" clip-rule="evenodd" d="M82.3453 26.3697C89.3613 24.9896 82.4192 26.6161 89.0659 25.0882C95.5156 43.3251 101.965 61.5374 108.415 79.7744C89.0412 78.6408 87.0226 32.1611 82.3453 26.3697Z" fill="#FBFBFD"/>
</g>
<path id="Vector_28" fill-rule="evenodd" clip-rule="evenodd" d="M62.7498 93.1071C62.7006 92.9099 63.9561 93.2303 63.9068 93.0332C57.9987 73.6872 51.155 54.4891 45.2222 35.1431C40.7172 26 24.7405 32.6294 10.487 24.7431C10.2655 24.6199 9.45309 25.236 9.23154 25.0881C14.7212 46.0853 20.2355 67.1071 25.7252 88.1043C37.4677 93.6739 53.2475 85.8862 62.7498 93.1317V93.1071Z" fill="url(#paint8_linear_1_2295)"/>
<g id="Group_2">
<path id="Vector_29" fill-rule="evenodd" clip-rule="evenodd" d="M64.0053 93.0578C58.0233 73.4901 52.0412 53.9223 46.0592 34.3792C57.6048 29.8446 58.4172 33.6645 72.9414 30.3128C78.9481 47.2683 85.1763 52.7393 90.0259 67.945C91.2814 71.8882 96.4757 78.5422 92.5369 80.0702C73.1384 87.6114 70.8982 88.9175 64.0053 93.0578Z" fill="url(#paint9_linear_1_2295)"/>
<path id="Vector_30" fill-rule="evenodd" clip-rule="evenodd" d="M64.0053 93.0578C58.0233 73.49 52.0412 53.9223 46.0592 34.3792C57.6048 29.8446 57.5309 33.9356 72.0552 30.5839C78.0373 47.5147 83.847 52.7147 88.6966 67.7972C89.9275 71.5924 94.7525 78.1232 90.9614 79.7498C72.843 87.4882 70.4797 88.7697 64.0053 93.0578Z" fill="url(#paint10_linear_1_2295)"/>
<path id="Vector_31" fill-rule="evenodd" clip-rule="evenodd" d="M64.0053 93.0578C58.0233 73.49 52.0412 53.9223 46.0592 34.3791C57.6048 29.8446 56.6447 34.2066 71.169 30.855C77.151 47.7611 82.5176 52.6901 87.3426 67.6493C88.5243 71.3213 93.0046 77.7043 89.3613 79.4294C72.4983 87.3403 70.012 88.6464 64.0053 93.0578Z" fill="url(#paint11_linear_1_2295)"/>
<path id="Vector_32" fill-rule="evenodd" clip-rule="evenodd" d="M64.0053 93.0578C58.0233 73.4901 52.0412 53.9223 46.0592 34.3792C57.6048 29.8446 55.7585 34.4777 70.2828 31.1507C76.2648 48.0569 81.2129 52.7147 85.9887 67.5507C87.1211 71.0995 91.2814 77.3346 87.7611 79.1583C72.1537 87.1924 69.5442 88.5479 63.9807 93.0825L64.0053 93.0578Z" fill="url(#paint12_linear_1_2295)"/>
<path id="Vector_33" fill-rule="evenodd" clip-rule="evenodd" d="M64.0053 93.0578C58.0233 73.4901 52.0412 53.9223 46.0592 34.3792C57.6048 29.8446 54.8969 34.7488 69.3965 31.4218C75.3786 48.3033 79.8836 52.6901 84.6347 67.4029C85.7425 70.8038 89.5582 76.9157 86.161 78.8133C71.8337 86.9213 69.0765 88.4 63.9807 93.0578H64.0053Z" fill="url(#paint13_linear_1_2295)"/>
<path id="Vector_34" fill-rule="evenodd" clip-rule="evenodd" d="M64.0053 93.0578C58.0233 73.4901 52.0412 53.9223 46.0592 34.3792C57.6048 29.8446 54.0106 35.0446 68.5349 31.6929C74.4923 48.5498 78.5788 52.6654 83.3054 67.255C84.3639 70.5327 87.8596 76.472 84.5855 78.4929C71.5136 86.601 68.658 88.2521 63.9807 93.0578H64.0053Z" fill="url(#paint14_linear_1_2295)"/>
<path id="Vector_35" fill-rule="evenodd" clip-rule="evenodd" d="M64.0053 93.0578C58.0233 73.49 52.0412 53.9223 46.0592 34.3792C57.6048 29.8446 53.1244 35.3156 67.6487 31.964C73.6061 48.7962 77.2495 52.6408 81.976 67.1318C82.9854 70.2863 86.161 76.0531 83.01 78.1972C71.169 86.2806 68.2149 88.1536 64.0053 93.0578Z" fill="url(#paint15_linear_1_2295)"/>
<path id="Vector_36" fill-rule="evenodd" clip-rule="evenodd" d="M64.0053 93.0578C58.0233 73.49 52.0412 53.9223 46.0592 34.3792C57.6048 29.8446 52.2382 35.5867 66.7625 32.2597C72.7199 49.0919 75.9202 52.6408 80.6221 67.0085C81.6068 70.0152 84.4378 75.6095 81.4098 77.9014C70.7997 85.8863 67.7472 88.0303 64.0053 93.0825V93.0578Z" fill="url(#paint16_linear_1_2295)"/>
<path id="Vector_37" fill-rule="evenodd" clip-rule="evenodd" d="M64.0053 93.0578C58.0233 73.49 52.0412 53.9223 46.0592 34.3791C57.6048 29.8446 51.352 35.8578 65.8762 32.5308C71.8337 49.3384 74.6154 52.6408 79.2681 66.8607C80.2036 69.7441 82.7392 75.1412 79.8097 77.5564C70.4058 85.3934 67.304 87.8825 63.9807 93.0578H64.0053Z" fill="url(#paint17_linear_1_2295)"/>
<path id="Vector_38" fill-rule="evenodd" clip-rule="evenodd" d="M64.0053 93.0578C58.0233 73.4901 52.0412 53.9223 46.0592 34.3792C57.6048 29.8446 50.4903 36.1536 65.0146 32.8019C70.9474 49.5848 73.3107 52.6161 77.9388 66.7128C78.8496 69.473 81.0406 74.673 78.2342 77.236C69.9874 84.8512 66.8609 87.7346 64.0053 93.0332V93.0578Z" fill="url(#paint18_linear_1_2295)"/>
<path id="Vector_39" fill-rule="evenodd" clip-rule="evenodd" d="M64.0053 93.0578C58.0233 73.49 52.0412 53.9223 46.0592 34.3792C57.6048 29.8446 49.6041 36.4247 64.1284 33.073C70.0612 49.8313 71.9814 52.5915 76.5848 66.5896C77.4464 69.2019 79.3174 74.2047 76.6341 76.9403C69.5196 84.2844 66.3932 87.636 63.9807 93.0578H64.0053Z" fill="url(#paint19_linear_1_2295)"/>
<path id="Vector_40" fill-rule="evenodd" clip-rule="evenodd" d="M64.0053 93.0578C58.0233 73.4901 52.0412 53.9223 46.0592 34.3792C57.6048 29.8446 48.7179 36.6957 63.2422 33.3687C69.175 50.127 70.652 52.5915 75.2309 66.4664C76.0432 68.9555 77.5695 73.7119 75.0339 76.6446C69.0027 83.6683 65.9501 87.5128 63.9807 93.0825L64.0053 93.0578Z" fill="url(#paint20_linear_1_2295)"/>
<path id="Vector_41" fill-rule="evenodd" clip-rule="evenodd" d="M64.0053 93.0578C58.0233 73.49 52.0412 53.9223 46.0592 34.3791C57.6048 29.8446 47.8317 36.9668 62.3559 33.6398C68.2641 50.3735 69.3227 52.5915 73.9015 66.3185C74.6893 68.6844 75.8217 73.1697 73.4584 76.3242C68.4611 83.0028 65.507 87.3896 63.9807 93.0578H64.0053Z" fill="url(#paint21_linear_1_2295)"/>
<path id="Vector_42" fill-rule="evenodd" clip-rule="evenodd" d="M64.0053 93.0578C58.0233 73.4901 52.0412 53.9223 46.0592 34.3792C57.6048 29.8446 46.97 37.2626 61.4943 33.9109C67.4025 50.6199 68.0426 52.5668 72.5722 66.1953C73.3107 68.4379 74.0492 72.6521 71.8829 76.0038C67.8703 82.3128 65.0639 87.2417 64.0053 93.0578Z" fill="url(#paint22_linear_1_2295)"/>
<path id="Vector_43" fill-rule="evenodd" clip-rule="evenodd" d="M64.0053 93.0578C58.0233 73.49 52.0412 53.9223 46.0592 34.3791C57.6048 29.8445 46.0592 37.5336 60.6081 34.182C66.5163 50.8664 66.7132 52.5422 71.2182 66.0474C71.9075 68.1422 72.1783 72.0853 70.2828 75.6834C67.181 81.5981 64.5961 87.1185 63.9807 93.0578H64.0053Z" fill="url(#paint23_linear_1_2295)"/>
<path id="Vector_44" fill-rule="evenodd" clip-rule="evenodd" d="M64.0053 93.0578C58.0233 73.49 52.0412 53.9223 46.0592 34.3791C57.6048 29.8446 45.1976 37.8047 59.7219 34.4531C65.6301 51.1374 65.3839 52.5175 69.8643 65.8995C70.5289 67.8711 70.2581 71.5185 68.7072 75.363C66.4424 80.9327 64.1776 86.9706 64.0053 93.0332V93.0578Z" fill="url(#paint24_linear_1_2295)"/>
<path id="Vector_45" fill-rule="evenodd" clip-rule="evenodd" d="M64.0053 93.0578C58.0233 73.4901 52.0412 53.9223 46.0592 34.3792C57.6048 29.8446 44.3114 38.0758 58.8357 34.7488C64.7192 51.4085 64.0546 52.5175 68.5103 65.7763C69.1257 67.6247 68.2395 70.9517 67.1071 75.0673C65.6301 80.3412 63.7099 86.872 64.0053 93.0578Z" fill="#453A49"/>
</g>
<path id="Vector_46" fill-rule="evenodd" clip-rule="evenodd" d="M64.0053 93.0578C58.0233 73.4901 52.0413 53.9223 46.0592 34.3791C41.4804 25.0882 24.4697 32.8512 10.0685 24.3242C15.5582 45.3213 21.0725 66.3431 26.5622 87.3403C38.3047 92.5896 54.4784 85.2209 64.0053 93.0578Z" fill="url(#paint25_linear_1_2295)"/>
<path id="Vector_47" d="M10.2162 24.2995C10.2162 24.2995 10.1178 24.1763 10.0439 24.201C9.97005 24.201 9.92081 24.2995 9.94543 24.3735L26.4391 87.3896C26.4391 87.3896 26.4883 87.4635 26.513 87.4881C31.8796 89.8787 38.1324 89.6569 44.2621 89.4597C51.5981 89.2133 58.7618 88.9668 63.9068 93.2057C63.9561 93.255 64.0545 93.255 64.1038 93.2057C64.153 93.1564 64.153 93.0578 64.1038 93.0085C58.8603 88.6957 51.672 88.9422 44.2621 89.2133C38.1816 89.4104 31.978 89.6322 26.6853 87.291L10.2162 24.2995Z" fill="white"/>
<path id="Vector_48" fill-rule="evenodd" clip-rule="evenodd" d="M66.5409 95.7194C80.4005 93.2796 94.2601 90.8398 108.095 88.4L108.661 85.1962L108.12 84.5801L108.834 84.309C109.055 83.0275 109.277 81.7706 109.498 80.5137C92.6354 84.4569 75.3293 88.3753 65.0146 92.6635C66.1963 88.6957 71.0213 66.1213 94.5555 60.8967C94.8756 60.8227 95.0725 60.527 94.9987 60.2066C94.9248 59.8863 94.6294 59.7137 94.3094 59.763C69.6919 65.2095 64.8177 89.1393 63.833 92.5403C63.7838 92.6881 63.7591 92.8114 63.7345 92.8853C54.183 85.3934 38.1816 92.5649 26.5622 87.3649V87.2663C26.3406 87.5867 26.1437 87.9071 25.9468 88.2028C37.4923 93.4521 53.0013 86.3791 62.5036 93.0578C49.1364 92.8607 35.7691 92.4663 22.4019 92.3185C22.0326 93.9943 20.4325 97.8389 20.0632 99.5393C33.1104 99.3175 48.2748 96.6806 61.322 96.4588C62.3067 94.1915 65.5316 93.0578 66.5163 95.7194H66.5409Z" fill="url(#paint26_linear_1_2295)"/>
<path id="Vector_49" d="M109.597 80.7602C109.597 80.7602 109.72 80.6616 109.72 80.5877C109.72 80.5137 109.621 80.4645 109.548 80.4645C109.548 80.4645 107.8 80.7848 104.944 81.3763C96.3772 83.1261 77.7418 87.291 65.2116 92.5156C65.1377 92.5403 65.1131 92.6142 65.1377 92.7128C65.1623 92.7867 65.2608 92.8114 65.3347 92.7867C82.0007 85.8123 109.548 80.7602 109.621 80.7602H109.597Z" fill="white"/>
<path id="Vector_50" d="M62.5037 93.2303C62.5037 93.2303 62.6514 93.181 62.6514 93.0825C62.6514 93.0085 62.6021 92.9346 62.5037 92.9346L22.8696 92.1213C22.8696 92.1213 22.7219 92.1706 22.7219 92.2692C22.7219 92.3431 22.7711 92.4171 22.8696 92.4171L62.5037 93.2303Z" fill="white"/>
<path id="Vector_51" d="M6.54822 32.6047C6.54822 32.6047 6.44975 32.4815 6.3759 32.5062C6.30205 32.5062 6.25281 32.6047 6.27743 32.6787L22.4265 92.3924C22.4265 92.3924 22.5249 92.5156 22.5988 92.491C22.6726 92.491 22.7219 92.3924 22.6973 92.3185L6.54822 32.6047Z" fill="white"/>
<path id="Vector_52" fill-rule="evenodd" clip-rule="evenodd" d="M4.9481 38.6427C6.67132 46.5536 9.79774 52.9611 12.7764 61.3896C8.49302 53.2076 5.56354 47.5147 3.37259 39.3081L3.91417 38.3962L4.97272 38.6427H4.9481Z" fill="white"/>
<path id="Vector_53" fill-rule="evenodd" clip-rule="evenodd" d="M5.04657 36.3014C6.6467 45.1242 9.55156 52.2957 12.7764 61.3896C8.46839 53.1583 6.20359 46.8 4.08649 38.4455L5.44045 38.7659L5.04657 36.3261V36.3014Z" fill="url(#paint27_linear_1_2295)"/>
<path id="Vector_54" fill-rule="evenodd" clip-rule="evenodd" d="M108.341 84.7773C103.689 86.2559 99.3806 86.5763 94.0632 87.5621C99.6514 87.3403 103.492 87.1678 108.464 85.8123L108.563 85.6152L108.661 85.1223L108.341 84.7773Z" fill="white"/>
<path id="Vector_55" fill-rule="evenodd" clip-rule="evenodd" d="M108.834 84.2844C104.009 85.9109 99.5529 86.5517 94.0878 87.5621C99.676 87.3403 103.689 86.6009 108.686 85.1962V85.1223L108.169 84.5555L108.858 84.309L108.834 84.2844Z" fill="url(#paint28_linear_1_2295)"/>
<path id="Vector_56" fill-rule="evenodd" clip-rule="evenodd" d="M18.98 102.817L0.221557 49.782L0 50.7185L18.4385 103.975L18.98 102.817Z" fill="url(#paint29_linear_1_2295)"/>
<path id="Vector_57" d="M110.926 89.8047C110.926 89.8047 111.025 89.6815 111 89.6076C110.975 89.5336 110.877 89.509 110.803 89.5336C110.163 89.8047 66.2209 97.1981 66.0978 97.2227C66.024 97.2227 65.9747 97.3213 65.9747 97.3953C65.9747 97.4692 66.0732 97.5185 66.1471 97.5185C66.2701 97.5185 110.262 90.1005 110.926 89.8047Z" fill="url(#paint30_linear_1_2295)"/>
<path id="Vector_58" d="M61.8882 97.8142C61.8882 97.8142 62.0113 97.7403 62.0113 97.6663C62.0113 97.5924 61.9374 97.5431 61.8636 97.5431L19.1524 102.645C19.1524 102.645 19.0293 102.718 19.0293 102.792C19.0293 102.866 19.1031 102.916 19.177 102.916L61.8882 97.8142Z" fill="url(#paint31_linear_1_2295)"/>
<path id="Vector_59" d="M0.492342 49.708C0.492342 49.708 0.393872 49.6095 0.32002 49.6341C0.246167 49.6588 0.196933 49.7327 0.246167 49.8066L19.0539 102.99C19.0539 102.99 19.1524 103.113 19.2262 103.088C19.3001 103.088 19.3493 102.99 19.3001 102.916L0.492342 49.708Z" fill="url(#paint32_linear_1_2295)"/>
<path id="Vector_60" fill-rule="evenodd" clip-rule="evenodd" d="M63.7591 93.2796L45.9115 33.6152C45.9607 32.5062 48.3979 26.8133 48.9641 25.6796C54.6753 13.8009 60.8789 4.26351 73.7784 0.591471C74.1969 0.468249 76.2156 -0.123221 76.5356 2.2091e-06L76.8802 0.41896L94.7033 59.8616C94.6048 59.5412 94.3586 59.3687 94.014 59.418C91.503 59.8863 87.318 61.4142 84.9794 62.5479C73.4092 68.1175 67.9687 79.6512 64.1038 91.7024L63.7591 93.255V93.2796Z" fill="url(#paint33_linear_1_2295)"/>
<g id="Group_3">
<path id="Vector_61" fill-rule="evenodd" clip-rule="evenodd" d="M58.8603 10.1782C64.1777 3.99242 69.4212 1.92228 76.2402 0.369675C82.8623 19.0749 87.9335 41.1564 94.5556 59.8616C84.2901 60.7488 81.1145 64.7905 75.9448 70.3355C56.9401 61.3156 55.1677 13.8256 58.8603 10.2028V10.1782Z" fill="#E4E1E7"/>
<path id="Vector_62" fill-rule="evenodd" clip-rule="evenodd" d="M59.3034 9.80854C64.7193 3.81991 69.4458 1.92228 76.2402 0.369675C82.8377 19.0502 87.9581 41.1564 94.5556 59.837C84.684 60.6749 81.6807 64.273 76.6341 69.2512C58.0479 59.9602 55.857 13.4806 59.3034 9.80854Z" fill="url(#paint34_linear_1_2295)"/>
<path id="Vector_63" fill-rule="evenodd" clip-rule="evenodd" d="M59.7465 9.46351C65.2608 3.67204 69.4458 1.94692 76.2402 0.394318C82.8377 19.0502 87.9827 41.2057 94.5802 59.8616C85.1025 60.6256 82.2468 63.8047 77.348 68.2161C59.1803 58.6787 56.5709 13.2095 59.7711 9.48816L59.7465 9.46351Z" fill="url(#paint35_linear_1_2295)"/>
<path id="Vector_64" fill-rule="evenodd" clip-rule="evenodd" d="M60.1896 9.09384C65.8024 3.49953 69.4458 1.94692 76.2402 0.394318C82.8377 19.001 87.9827 41.2303 94.5802 59.837C85.4963 60.527 82.813 63.2626 78.0373 67.1318C60.3127 57.3232 57.2602 12.8645 60.1896 9.09384Z" fill="url(#paint36_linear_1_2295)"/>
<path id="Vector_65" fill-rule="evenodd" clip-rule="evenodd" d="M60.6574 8.72417C66.3686 3.30237 69.495 1.97157 76.2648 0.394318C82.8377 18.9763 88.032 41.255 94.6048 59.837C85.9149 60.4531 83.4039 62.7697 78.7512 66.072C61.4451 55.9924 57.9741 12.5441 60.6574 8.72417Z" fill="url(#paint37_linear_1_2295)"/>
<path id="Vector_66" fill-rule="evenodd" clip-rule="evenodd" d="M61.1005 8.35451C66.9102 3.12986 69.495 1.97157 76.2402 0.418961C82.813 18.9763 88.0319 41.2796 94.6048 59.837C86.3333 60.3792 83.9701 62.2521 79.4405 65.0123C62.5529 54.6863 58.6633 12.2237 61.1005 8.35451Z" fill="url(#paint38_linear_1_2295)"/>
<path id="Vector_67" fill-rule="evenodd" clip-rule="evenodd" d="M61.5436 7.98484C67.4518 2.95735 69.5196 1.97157 76.2402 0.418961C82.7884 18.9517 88.0566 41.3043 94.6048 59.837C86.7272 60.3052 84.5117 61.7592 80.1297 63.9526C63.6853 53.3555 59.3526 11.928 61.519 8.00948L61.5436 7.98484Z" fill="url(#paint39_linear_1_2295)"/>
<path id="Vector_68" fill-rule="evenodd" clip-rule="evenodd" d="M61.9867 7.61517C67.9934 2.78484 69.5197 1.97157 76.2402 0.418961C82.7884 18.9024 88.0812 41.3289 94.6048 59.8123C87.1211 60.2066 85.0779 61.2171 80.8191 62.8682C64.7931 52.0246 60.0419 11.5829 61.9621 7.61517H61.9867Z" fill="url(#paint40_linear_1_2295)"/>
<path id="Vector_69" fill-rule="evenodd" clip-rule="evenodd" d="M62.4298 7.2455C68.5349 2.61233 69.5196 1.97157 76.2402 0.418961C82.7638 18.8777 88.0812 41.3289 94.6294 59.8123C87.5396 60.1573 85.6687 60.7242 81.5329 61.8085C65.9255 50.6938 60.7558 11.2626 62.4298 7.2455Z" fill="url(#paint41_linear_1_2295)"/>
<path id="Vector_70" fill-rule="evenodd" clip-rule="evenodd" d="M62.873 6.87583C69.0765 2.43981 69.5443 1.97157 76.2402 0.418961C82.7638 18.8531 88.1058 41.3536 94.6294 59.7877C87.9335 60.0588 86.2349 60.182 82.2223 60.7242C67.0333 49.363 61.4205 10.9422 62.873 6.87583Z" fill="url(#paint42_linear_1_2295)"/>
<path id="Vector_71" fill-rule="evenodd" clip-rule="evenodd" d="M63.3161 6.53081C69.6181 2.29194 69.5443 1.99621 76.2402 0.468246C82.7638 18.8777 88.1304 41.4275 94.6541 59.837C88.352 60.0341 86.8257 59.7384 82.9361 59.7137C68.1903 48.0815 62.1344 10.6711 63.3161 6.55545V6.53081Z" fill="url(#paint43_linear_1_2295)"/>
<path id="Vector_72" fill-rule="evenodd" clip-rule="evenodd" d="M63.7592 6.16114C70.1597 2.11943 69.5443 1.99621 76.2402 0.468246C82.7392 18.8531 88.1551 41.4275 94.6541 59.8123C88.7459 59.9355 87.3673 59.2209 83.6254 58.6294C69.2981 46.7507 62.8237 10.3261 63.7592 6.16114Z" fill="url(#paint44_linear_1_2295)"/>
<path id="Vector_73" fill-rule="evenodd" clip-rule="evenodd" d="M64.2269 5.79147C70.7259 1.94692 69.5935 1.99621 76.2648 0.468246C82.7638 18.8038 88.2043 41.4521 94.6786 59.8123C89.1643 59.8616 87.9581 58.7033 84.3393 57.5697C70.4305 45.4199 63.5376 10.0303 64.2269 5.79147Z" fill="url(#paint45_linear_1_2295)"/>
<path id="Vector_74" fill-rule="evenodd" clip-rule="evenodd" d="M64.67 5.4218C71.2675 1.74976 69.5935 2.02085 76.2648 0.468246C82.7392 18.7791 88.2043 41.4768 94.7033 59.7877C89.5829 59.7877 88.5489 58.1858 85.0532 56.4853C71.5875 44.0891 64.2515 9.68531 64.6946 5.4218H64.67Z" fill="url(#paint46_linear_1_2295)"/>
<path id="Vector_75" fill-rule="evenodd" clip-rule="evenodd" d="M65.1131 5.05215C71.8091 1.57726 69.5935 2.02087 76.2648 0.492905C82.7392 18.7792 88.2289 41.5261 94.7033 59.8123C89.9767 59.7138 89.1151 57.6929 85.7425 55.4503C72.6953 42.783 64.9408 9.38959 65.1131 5.07679V5.05215Z" fill="url(#paint47_linear_1_2295)"/>
<path id="Vector_76" fill-rule="evenodd" clip-rule="evenodd" d="M65.5562 4.68248C72.3507 1.40475 69.6181 2.02087 76.2648 0.492905C82.7146 18.7545 88.2535 41.5261 94.7033 59.7877C90.3706 59.6398 89.6567 57.1754 86.4318 54.3659C73.8031 41.4521 65.6301 9.04456 65.5562 4.68248Z" fill="url(#paint48_linear_1_2295)"/>
<path id="Vector_77" fill-rule="evenodd" clip-rule="evenodd" d="M65.9994 4.31281C72.8922 1.23224 69.6181 2.02087 76.2648 0.492905C82.7146 18.7299 88.2781 41.5507 94.7279 59.7877C90.7891 59.5659 90.2475 56.6578 87.1457 53.3062C74.9355 40.1213 66.344 8.74883 65.9994 4.31281Z" fill="url(#paint49_linear_1_2295)"/>
</g>
<path id="Vector_78" d="M63.9068 92.9592C63.9068 92.9592 63.7591 93.1071 63.6607 93.0825C63.5622 93.0578 63.513 92.9346 63.5376 92.836C63.5622 92.7374 70.332 61.9071 94.5555 59.5166C94.654 59.5166 94.7525 59.5905 94.7771 59.6891C94.7771 59.7877 94.7033 59.8863 94.6048 59.8863C71.1444 63.1147 64.0545 93.0332 63.9068 92.9346V92.9592Z" fill="white"/>
</g>
<defs>
<linearGradient id="paint0_linear_1_2295" x1="20.5309" y1="95.2265" x2="60.1651" y2="96.6036" gradientUnits="userSpaceOnUse">
<stop stop-color="#297A9F"/>
<stop offset="1" stop-color="#254058"/>
</linearGradient>
<linearGradient id="paint1_linear_1_2295" x1="65.3593" y1="94.4626" x2="61.937" y2="95.3725" gradientUnits="userSpaceOnUse">
<stop stop-color="#1B2C36"/>
<stop offset="0.24"/>
<stop offset="0.64" stop-color="#69A5BA"/>
<stop offset="0.89" stop-color="#98CDDB"/>
<stop offset="1" stop-color="#E2E9EB"/>
</linearGradient>
<linearGradient id="paint2_linear_1_2295" x1="35.4245" y1="74.2787" x2="104.164" y2="58.4407" gradientUnits="userSpaceOnUse">
<stop stop-color="#98CDDB"/>
<stop offset="0.36" stop-color="#98CDDB"/>
<stop offset="0.68" stop-color="#205C77"/>
<stop offset="1" stop-color="#21526B"/>
</linearGradient>
<linearGradient id="paint3_linear_1_2295" x1="-11.5948" y1="83.5943" x2="56.3815" y2="67.9039" gradientUnits="userSpaceOnUse">
<stop stop-color="#98CDDB"/>
<stop offset="0.36" stop-color="#98CDDB"/>
<stop offset="0.68" stop-color="#205C77"/>
<stop offset="1" stop-color="#21526B"/>
</linearGradient>
<linearGradient id="paint4_linear_1_2295" x1="110.212" y1="46.8246" x2="54.3928" y2="64.9515" gradientUnits="userSpaceOnUse">
<stop stop-color="#E4E1E7"/>
<stop offset="0.63" stop-color="#E4E1E7"/>
<stop offset="0.78" stop-color="#E9E8ED"/>
<stop offset="0.89" stop-color="#DAD6E0"/>
<stop offset="1" stop-color="#8B8590"/>
</linearGradient>
<linearGradient id="paint5_linear_1_2295" x1="40.8403" y1="59.763" x2="13.4278" y2="74.3276" gradientUnits="userSpaceOnUse">
<stop stop-color="#8B8590"/>
<stop offset="0.69" stop-color="#DDDCE0"/>
<stop offset="1" stop-color="#EFEEF1"/>
</linearGradient>
<linearGradient id="paint6_linear_1_2295" x1="37.0492" y1="62.5479" x2="5.89408" y2="78.3912" gradientUnits="userSpaceOnUse">
<stop stop-color="#8B8590"/>
<stop offset="0.69" stop-color="#DDDCE0"/>
<stop offset="1" stop-color="#EFEEF1"/>
</linearGradient>
<linearGradient id="paint7_linear_1_2295" x1="25.6514" y1="99.9583" x2="-1.94914" y2="24.2451" gradientUnits="userSpaceOnUse">
<stop stop-color="#A19DA6"/>
<stop offset="0.18" stop-color="#B7B4BA"/>
<stop offset="0.43" stop-color="#DDDCE0"/>
<stop offset="1" stop-color="#EFEEF1"/>
</linearGradient>
<linearGradient id="paint8_linear_1_2295" x1="47.8809" y1="93.9697" x2="27.3105" y2="40.4815" gradientUnits="userSpaceOnUse">
<stop stop-color="#A19DA6"/>
<stop offset="0.18" stop-color="#B7B4BA"/>
<stop offset="0.43" stop-color="#DDDCE0"/>
<stop offset="1" stop-color="#EFEEF1"/>
</linearGradient>
<linearGradient id="paint9_linear_1_2295" x1="89.8536" y1="51.7043" x2="53.5344" y2="64.1991" gradientUnits="userSpaceOnUse">
<stop stop-color="#E7E5EA"/>
<stop offset="0.84" stop-color="#E7E5EA"/>
<stop offset="1" stop-color="#8B8590"/>
</linearGradient>
<linearGradient id="paint10_linear_1_2295" x1="88.4012" y1="52.1972" x2="53.5594" y2="64.2001" gradientUnits="userSpaceOnUse">
<stop stop-color="#D6D3D9"/>
<stop offset="0.84" stop-color="#D6D3D9"/>
<stop offset="1" stop-color="#867F8A"/>
</linearGradient>
<linearGradient id="paint11_linear_1_2295" x1="86.9488" y1="52.7147" x2="53.5844" y2="64.1765" gradientUnits="userSpaceOnUse">
<stop stop-color="#C9C5CB"/>
<stop offset="0.84" stop-color="#C9C5CB"/>
<stop offset="1" stop-color="#817A86"/>
</linearGradient>
<linearGradient id="paint12_linear_1_2295" x1="85.5209" y1="53.2076" x2="53.6093" y2="64.1774" gradientUnits="userSpaceOnUse">
<stop stop-color="#BDB7BF"/>
<stop offset="0.84" stop-color="#BDB7BF"/>
<stop offset="1" stop-color="#7D7581"/>
</linearGradient>
<linearGradient id="paint13_linear_1_2295" x1="84.0931" y1="53.7005" x2="53.6097" y2="64.1784" gradientUnits="userSpaceOnUse">
<stop stop-color="#B1AAB3"/>
<stop offset="0.84" stop-color="#B1AAB3"/>
<stop offset="1" stop-color="#78707C"/>
</linearGradient>
<linearGradient id="paint14_linear_1_2295" x1="82.6899" y1="54.1687" x2="53.6346" y2="64.1547" gradientUnits="userSpaceOnUse">
<stop stop-color="#A69EA7"/>
<stop offset="0.84" stop-color="#A69EA7"/>
<stop offset="1" stop-color="#746B77"/>
</linearGradient>
<linearGradient id="paint15_linear_1_2295" x1="81.2868" y1="54.6616" x2="53.6596" y2="64.1557" gradientUnits="userSpaceOnUse">
<stop stop-color="#9B929C"/>
<stop offset="0.84" stop-color="#9B929C"/>
<stop offset="1" stop-color="#6F6673"/>
</linearGradient>
<linearGradient id="paint16_linear_1_2295" x1="79.9082" y1="55.1299" x2="53.6845" y2="64.1566" gradientUnits="userSpaceOnUse">
<stop stop-color="#918792"/>
<stop offset="0.84" stop-color="#918792"/>
<stop offset="1" stop-color="#6B616E"/>
</linearGradient>
<linearGradient id="paint17_linear_1_2295" x1="78.5788" y1="55.5981" x2="53.7094" y2="64.1575" gradientUnits="userSpaceOnUse">
<stop stop-color="#877C88"/>
<stop offset="0.84" stop-color="#877C88"/>
<stop offset="1" stop-color="#675D6A"/>
</linearGradient>
<linearGradient id="paint18_linear_1_2295" x1="77.2495" y1="56.0417" x2="53.7097" y2="64.1338" gradientUnits="userSpaceOnUse">
<stop stop-color="#7E727F"/>
<stop offset="0.84" stop-color="#7E727F"/>
<stop offset="1" stop-color="#625866"/>
</linearGradient>
<linearGradient id="paint19_linear_1_2295" x1="75.9448" y1="56.4853" x2="53.7347" y2="64.1347" gradientUnits="userSpaceOnUse">
<stop stop-color="#756976"/>
<stop offset="0.84" stop-color="#756976"/>
<stop offset="1" stop-color="#5E5462"/>
</linearGradient>
<linearGradient id="paint20_linear_1_2295" x1="74.64" y1="56.9536" x2="53.7596" y2="64.1356" gradientUnits="userSpaceOnUse">
<stop stop-color="#6C606D"/>
<stop offset="0.84" stop-color="#6C606D"/>
<stop offset="1" stop-color="#5A4F5D"/>
</linearGradient>
<linearGradient id="paint21_linear_1_2295" x1="73.3599" y1="57.3972" x2="53.7599" y2="64.1365" gradientUnits="userSpaceOnUse">
<stop stop-color="#645865"/>
<stop offset="0.84" stop-color="#645865"/>
<stop offset="1" stop-color="#554B59"/>
</linearGradient>
<linearGradient id="paint22_linear_1_2295" x1="72.1291" y1="57.8161" x2="53.7848" y2="64.1127" gradientUnits="userSpaceOnUse">
<stop stop-color="#5C505E"/>
<stop offset="0.84" stop-color="#5C505E"/>
<stop offset="1" stop-color="#514655"/>
</linearGradient>
<linearGradient id="paint23_linear_1_2295" x1="71.0705" y1="58.1858" x2="53.8097" y2="64.1134" gradientUnits="userSpaceOnUse">
<stop stop-color="#544857"/>
<stop offset="0.84" stop-color="#544857"/>
<stop offset="1" stop-color="#4D4251"/>
</linearGradient>
<linearGradient id="paint24_linear_1_2295" x1="70.0858" y1="58.5308" x2="53.8099" y2="64.1141" gradientUnits="userSpaceOnUse">
<stop stop-color="#4D4150"/>
<stop offset="0.84" stop-color="#4D4150"/>
<stop offset="1" stop-color="#493E4D"/>
</linearGradient>
<linearGradient id="paint25_linear_1_2295" x1="20.4325" y1="63.4597" x2="53.2284" y2="54.0646" gradientUnits="userSpaceOnUse">
<stop stop-color="#EFEEF1"/>
<stop offset="0.22" stop-color="#E4E1E7"/>
<stop offset="0.78" stop-color="white"/>
<stop offset="0.91" stop-color="#DAD6E0"/>
<stop offset="1" stop-color="#6D5688"/>
</linearGradient>
<linearGradient id="paint26_linear_1_2295" x1="72.646" y1="56.8796" x2="62.1864" y2="102.171" gradientUnits="userSpaceOnUse">
<stop stop-color="#A19DA6"/>
<stop offset="0.18" stop-color="#B7B4BA"/>
<stop offset="0.58" stop-color="#DDDCE0"/>
<stop offset="1" stop-color="#EFEEF1"/>
</linearGradient>
<linearGradient id="paint27_linear_1_2295" x1="10.5609" y1="58.5062" x2="6.1452" y2="40.7644" gradientUnits="userSpaceOnUse">
<stop stop-color="#8B8590"/>
<stop offset="1" stop-color="#64616E"/>
</linearGradient>
<linearGradient id="paint28_linear_1_2295" x1="96.1803" y1="87.7839" x2="107.014" y2="84.8818" gradientUnits="userSpaceOnUse">
<stop stop-color="#8B8590"/>
<stop offset="1" stop-color="#64616E"/>
</linearGradient>
<linearGradient id="paint29_linear_1_2295" x1="19.8416" y1="101.659" x2="3.56381" y2="63.3494" gradientUnits="userSpaceOnUse">
<stop stop-color="#E2E9EB"/>
<stop offset="1" stop-color="#2A6E91"/>
</linearGradient>
<linearGradient id="paint30_linear_1_2295" x1="64.6946" y1="97.3213" x2="93.9171" y2="92.6981" gradientUnits="userSpaceOnUse">
<stop stop-color="#98CDDB"/>
<stop offset="1" stop-color="white"/>
</linearGradient>
<linearGradient id="paint31_linear_1_2295" x1="58.5156" y1="96.0645" x2="14.1993" y2="106.271" gradientUnits="userSpaceOnUse">
<stop stop-color="#98CDDB"/>
<stop offset="1" stop-color="white"/>
</linearGradient>
<linearGradient id="paint32_linear_1_2295" x1="18.3646" y1="106.391" x2="3.53939" y2="54.7935" gradientUnits="userSpaceOnUse">
<stop stop-color="#A2D4DE"/>
<stop offset="1" stop-color="white"/>
</linearGradient>
<linearGradient id="paint33_linear_1_2295" x1="91.0106" y1="39.6777" x2="49.2014" y2="53.2545" gradientUnits="userSpaceOnUse">
<stop stop-color="#E4E1E7"/>
<stop offset="0.63" stop-color="#E4E1E7"/>
<stop offset="0.78" stop-color="#E9E8ED"/>
<stop offset="0.89" stop-color="#DAD6E0"/>
<stop offset="1" stop-color="#9281A7"/>
</linearGradient>
<linearGradient id="paint34_linear_1_2295" x1="58.3187" y1="40.5896" x2="87.7674" y2="31.0219" gradientUnits="userSpaceOnUse">
<stop stop-color="#E6E2E8"/>
<stop offset="1" stop-color="#E4E1E7"/>
</linearGradient>
<linearGradient id="paint35_linear_1_2295" x1="59.328" y1="39.8256" x2="87.5947" y2="30.6761" gradientUnits="userSpaceOnUse">
<stop stop-color="#E7E4EA"/>
<stop offset="1" stop-color="#E4E1E7"/>
</linearGradient>
<linearGradient id="paint36_linear_1_2295" x1="60.3373" y1="39.0863" x2="87.3976" y2="30.3057" gradientUnits="userSpaceOnUse">
<stop stop-color="#E8E5EB"/>
<stop offset="1" stop-color="#E5E2E8"/>
</linearGradient>
<linearGradient id="paint37_linear_1_2295" x1="61.3467" y1="38.3469" x2="87.225" y2="29.9599" gradientUnits="userSpaceOnUse">
<stop stop-color="#EAE7EC"/>
<stop offset="1" stop-color="#E5E2E8"/>
</linearGradient>
<linearGradient id="paint38_linear_1_2295" x1="62.356" y1="37.6076" x2="87.0524" y2="29.5894" gradientUnits="userSpaceOnUse">
<stop stop-color="#EBE9ED"/>
<stop offset="1" stop-color="#E5E2E8"/>
</linearGradient>
<linearGradient id="paint39_linear_1_2295" x1="63.4391" y1="37.1393" x2="86.9537" y2="29.4901" gradientUnits="userSpaceOnUse">
<stop stop-color="#EDEAEE"/>
<stop offset="1" stop-color="#E5E2E8"/>
</linearGradient>
<linearGradient id="paint40_linear_1_2295" x1="64.5469" y1="36.7697" x2="86.9043" y2="29.514" gradientUnits="userSpaceOnUse">
<stop stop-color="#EEECF0"/>
<stop offset="1" stop-color="#E5E3E8"/>
</linearGradient>
<linearGradient id="paint41_linear_1_2295" x1="65.6547" y1="36.4246" x2="86.8548" y2="29.5379" gradientUnits="userSpaceOnUse">
<stop stop-color="#F0EEF1"/>
<stop offset="1" stop-color="#E6E3E8"/>
</linearGradient>
<linearGradient id="paint42_linear_1_2295" x1="66.7379" y1="36.055" x2="86.8053" y2="29.5618" gradientUnits="userSpaceOnUse">
<stop stop-color="#F1EFF2"/>
<stop offset="1" stop-color="#E6E3E8"/>
</linearGradient>
<linearGradient id="paint43_linear_1_2295" x1="67.8457" y1="35.7099" x2="86.7558" y2="29.5611" gradientUnits="userSpaceOnUse">
<stop stop-color="#F3F1F4"/>
<stop offset="1" stop-color="#E6E4E9"/>
</linearGradient>
<linearGradient id="paint44_linear_1_2295" x1="68.9042" y1="35.3649" x2="86.7064" y2="29.585" gradientUnits="userSpaceOnUse">
<stop stop-color="#F4F3F5"/>
<stop offset="1" stop-color="#E6E4E9"/>
</linearGradient>
<linearGradient id="paint45_linear_1_2295" x1="69.9628" y1="35.0199" x2="86.6569" y2="29.6089" gradientUnits="userSpaceOnUse">
<stop stop-color="#F6F5F7"/>
<stop offset="1" stop-color="#E6E4E9"/>
</linearGradient>
<linearGradient id="paint46_linear_1_2295" x1="71.0213" y1="34.6749" x2="86.5828" y2="29.6328" gradientUnits="userSpaceOnUse">
<stop stop-color="#F8F7F8"/>
<stop offset="1" stop-color="#E6E4E9"/>
</linearGradient>
<linearGradient id="paint47_linear_1_2295" x1="72.0306" y1="34.3545" x2="86.5334" y2="29.6322" gradientUnits="userSpaceOnUse">
<stop stop-color="#FAF9FA"/>
<stop offset="1" stop-color="#E7E5E9"/>
</linearGradient>
<linearGradient id="paint48_linear_1_2295" x1="73.0399" y1="34.0341" x2="86.4839" y2="29.6561" gradientUnits="userSpaceOnUse">
<stop stop-color="#FCFCFD"/>
<stop offset="1" stop-color="#E7E5E9"/>
</linearGradient>
<linearGradient id="paint49_linear_1_2295" x1="73.9754" y1="33.7138" x2="86.4591" y2="29.6555" gradientUnits="userSpaceOnUse">
<stop stop-color="white"/>
<stop offset="1" stop-color="#E7E5EA"/>
</linearGradient>
<clipPath id="clip0_1_2295">
<rect width="111" height="104" fill="white"/>
</clipPath>
</defs>
</svg>
